<?xml version="1.0" standalone="no"?>
<!DOCTYPE svg PUBLIC "-//W3C//DTD SVG 20010904//EN"
 "http://www.w3.org/TR/2001/REC-SVG-20010904/DTD/svg10.dtd">
<svg version="1.0" xmlns="http://www.w3.org/2000/svg"
 width="1080.000000pt" height="1080.000000pt" viewBox="0 0 1080.000000 1080.000000"
 preserveAspectRatio="xMidYMid meet">

<g transform="translate(0.000000,1080.000000) scale(0.100000,-0.100000)"
fill="#000000" stroke="none">
<path d="M4710 10009 c-40 -8 -214 -27 -264 -28 -15 -1 -17 -7 -13 -43 3 -24
12 -107 20 -186 9 -78 20 -157 25 -175 6 -18 12 -75 15 -127 3 -52 10 -122 16
-155 6 -33 15 -109 20 -168 5 -60 12 -112 16 -115 11 -11 449 38 511 58 66 21
152 65 213 109 45 32 114 142 136 216 24 78 24 192 2 278 -41 156 -149 272
-302 326 -50 18 -81 21 -205 20 -80 -1 -165 -6 -190 -10z m299 -108 c168 -44
270 -169 288 -353 6 -56 -27 -166 -63 -215 -42 -56 -97 -103 -149 -127 -61
-29 -187 -53 -321 -62 l-102 -7 -6 54 c-4 30 -13 104 -21 164 -45 341 -60 516
-45 525 6 4 60 10 118 14 59 3 121 10 137 15 46 14 84 12 164 -8z"/>
<path d="M5810 9784 c-136 -51 -209 -129 -254 -269 -29 -91 -12 -220 41 -305
29 -45 107 -112 163 -138 50 -23 67 -26 185 -26 124 -1 132 0 183 27 60 32 67
58 29 102 l-22 26 -49 -27 c-41 -23 -61 -28 -125 -28 -129 0 -224 52 -272 151
-23 49 -23 110 1 105 14 -4 156 -20 365 -43 55 -5 124 -15 153 -21 28 -6 55
-8 60 -4 4 4 7 49 7 99 0 83 -3 98 -33 158 -36 75 -86 125 -164 166 -46 23
-67 27 -153 30 -55 1 -107 0 -115 -3z m195 -115 c82 -30 117 -70 148 -165 21
-64 18 -66 -92 -59 -53 4 -109 11 -126 16 -16 5 -76 13 -133 17 -57 5 -107 13
-113 19 -13 13 11 68 48 111 37 42 117 81 170 81 23 1 67 -8 98 -20z"/>
<path d="M3483 9713 c-18 -7 -16 -30 6 -77 32 -71 44 -106 37 -113 -4 -4 -33
-2 -64 5 -32 7 -73 12 -90 12 -30 0 -32 -2 -32 -39 0 -38 0 -38 46 -45 26 -3
63 -6 84 -6 20 0 39 -3 43 -6 7 -7 -37 -77 -75 -119 l-27 -29 21 -23 c27 -29
54 -29 69 0 18 32 82 117 89 117 7 0 60 -114 60 -129 0 -5 7 -14 15 -21 12
-10 21 -10 45 0 16 7 30 14 30 16 0 2 -16 36 -35 77 -19 41 -35 78 -35 84 0 7
33 8 94 5 l93 -5 7 28 c4 15 3 32 -2 37 -4 4 -47 13 -95 19 -48 7 -87 16 -87
21 0 5 23 35 50 67 28 32 50 64 50 72 0 8 -12 23 -27 33 -26 19 -26 19 -47 -6
-12 -13 -36 -46 -54 -72 -44 -64 -48 -62 -96 47 -24 56 -37 65 -73 50z"/>
<path d="M7352 9657 c-30 -32 -29 -87 1 -115 17 -16 36 -22 69 -22 52 0 66 12
75 64 5 30 1 40 -25 66 -39 38 -88 41 -120 7z"/>
<path d="M6535 9606 c-64 -29 -109 -90 -121 -164 -13 -83 51 -158 206 -242
105 -57 160 -105 160 -141 0 -37 -37 -77 -78 -84 -81 -13 -219 41 -311 121
l-54 48 -34 -37 c-29 -33 -32 -40 -22 -59 18 -33 89 -86 159 -120 105 -50 113
-52 232 -52 115 -1 117 -1 155 30 44 35 82 105 83 152 0 42 -31 103 -68 133
-29 24 -45 34 -186 117 -97 57 -121 86 -112 135 8 44 56 77 112 77 67 0 200
-58 249 -110 l28 -29 39 30 c45 36 47 47 13 79 -29 28 -48 39 -145 87 -69 34
-83 37 -175 40 -70 2 -109 -1 -130 -11z"/>
<path d="M7242 9388 c-7 -7 -12 -16 -12 -20 0 -5 -44 -100 -99 -211 -110 -225
-175 -364 -184 -388 -7 -22 2 -33 50 -57 l42 -22 19 33 c11 17 52 100 91 182
40 83 76 157 82 165 5 8 13 24 18 35 5 11 32 68 60 127 28 58 51 111 51 117 0
11 -75 51 -95 51 -6 0 -16 -5 -23 -12z"/>
<path d="M2725 9227 c-67 -52 -66 -51 -61 -140 3 -45 8 -150 12 -233 l5 -152
-38 9 c-51 11 -140 33 -238 59 -44 12 -103 26 -132 32 l-52 11 -45 -39 c-52
-46 -56 -60 -18 -67 15 -2 63 -15 107 -27 82 -23 156 -42 256 -65 31 -7 79
-20 107 -29 l49 -17 11 -72 c6 -40 14 -168 17 -286 4 -117 9 -220 12 -227 8
-22 26 -17 71 22 l42 36 0 88 c0 48 -5 134 -12 191 -7 57 -12 131 -13 164 l0
60 40 -4 c22 -1 45 -7 50 -11 10 -8 41 -16 210 -54 33 -8 74 -18 90 -24 77
-26 102 -23 155 19 27 22 50 44 50 49 0 5 -17 12 -37 15 -21 4 -49 11 -63 16
-14 5 -45 13 -70 18 -25 6 -81 20 -125 31 -44 12 -107 28 -140 36 -33 7 -82
19 -110 27 l-50 14 -7 99 c-4 54 -12 149 -18 210 -5 61 -10 143 -10 182 0 39
-4 73 -8 76 -5 3 -21 -5 -37 -17z"/>
<path d="M7580 9111 c-92 -22 -174 -91 -227 -193 -25 -47 -28 -63 -28 -148 0
-118 21 -167 109 -255 86 -86 130 -106 244 -112 50 -3 92 -7 92 -10 0 -2 -18
-28 -40 -58 -78 -105 -176 -132 -289 -79 -74 34 -203 164 -223 225 -16 47 -20
49 -83 25 -47 -17 -47 -25 -3 -109 33 -61 168 -199 216 -219 15 -7 34 -17 42
-23 36 -27 118 -50 180 -49 114 1 208 71 331 247 68 98 215 304 268 378 23 31
41 63 41 72 0 17 -62 67 -82 67 -7 -1 -22 -15 -33 -32 -29 -46 -42 -45 -54 4
-26 105 -98 189 -204 241 -58 29 -191 43 -257 28z m184 -121 c74 -25 130 -70
166 -134 61 -106 47 -198 -44 -290 -44 -46 -60 -55 -109 -66 -109 -22 -200 15
-282 114 -34 41 -38 54 -43 116 -6 89 13 142 73 201 42 42 114 76 161 78 11 1
47 -8 78 -19z"/>
<path d="M8394 8527 c-34 -28 -95 -82 -135 -118 -41 -37 -130 -116 -199 -176
-140 -123 -148 -138 -100 -190 16 -18 32 -33 36 -33 7 0 131 108 238 207 69
64 174 123 218 123 42 0 146 -59 182 -103 45 -55 59 -110 46 -173 -6 -27 -19
-58 -28 -69 -9 -11 -90 -85 -180 -164 -90 -79 -166 -150 -169 -158 -7 -17 54
-83 76 -83 20 0 161 123 343 297 67 64 93 121 92 208 -1 105 -48 185 -158 269
-34 25 -63 37 -116 47 l-71 12 36 37 c19 20 35 39 35 43 0 12 -62 77 -74 77
-6 0 -39 -24 -72 -53z"/>
<path d="M1856 8429 c-15 -22 -25 -47 -22 -54 4 -12 102 -86 204 -155 21 -14
65 -46 99 -72 34 -27 64 -48 66 -48 9 0 72 -55 134 -117 36 -37 64 -74 68 -92
4 -17 11 -33 16 -36 26 -17 -8 -147 -54 -208 -86 -113 -161 -149 -269 -128
-77 14 -127 44 -323 191 -204 153 -273 200 -289 194 -19 -7 -66 -68 -66 -86 0
-7 25 -31 56 -53 30 -22 70 -51 87 -65 18 -14 67 -50 110 -80 43 -30 109 -78
148 -107 38 -29 102 -68 142 -88 68 -34 80 -36 168 -36 108 -1 129 6 207 62
145 103 233 291 202 427 -28 120 -96 210 -229 303 -124 86 -149 105 -222 160
-120 90 -178 129 -193 129 -7 0 -26 -18 -40 -41z"/>
<path d="M1111 7668 l-22 -53 43 -39 c116 -107 268 -253 523 -505 155 -152
315 -309 357 -350 l76 -74 21 34 c12 19 21 43 21 55 0 21 -152 174 -575 580
-116 111 -249 239 -296 285 -138 135 -123 128 -148 67z"/>
<path d="M9387 7594 c-4 -4 -7 -28 -7 -53 0 -25 -3 -63 -6 -84 -6 -32 -10 -37
-28 -31 -11 3 -32 16 -46 29 -14 12 -40 32 -59 45 l-34 23 -18 -21 c-27 -34
-12 -59 62 -109 38 -24 69 -47 69 -49 0 -2 -38 -21 -85 -44 l-86 -40 16 -30
c9 -16 20 -30 24 -30 5 0 36 13 68 29 101 50 94 54 92 -50 -2 -94 4 -108 43
-109 20 0 25 14 33 108 4 39 10 74 14 77 4 2 38 -18 76 -45 37 -28 71 -50 76
-50 4 0 17 13 28 29 24 33 26 30 -77 101 -49 34 -60 46 -51 56 6 8 17 14 24
14 15 0 105 38 122 52 10 8 9 16 -3 39 -8 16 -19 29 -24 29 -5 0 -33 -13 -62
-29 -29 -15 -64 -31 -77 -36 l-23 -7 3 93 4 94 -30 3 c-17 2 -34 0 -38 -4z"/>
<path d="M1002 6890 c-19 -58 -20 -61 -2 -70 26 -14 887 -300 902 -300 16 0
53 109 41 119 -4 4 -35 16 -68 26 -33 10 -73 24 -90 31 -16 7 -189 65 -383
129 -194 64 -359 118 -366 121 -8 3 -20 -15 -34 -56z"/>
<path d="M9645 6471 c-160 -70 -315 -139 -345 -153 -30 -14 -104 -47 -165 -73
-60 -26 -115 -54 -122 -62 -15 -20 -5 -124 14 -140 8 -6 38 -16 66 -23 29 -6
75 -17 102 -25 28 -7 95 -23 150 -35 55 -12 123 -28 150 -35 96 -26 140 -36
205 -47 36 -6 75 -15 88 -21 21 -10 21 -12 5 -29 -9 -10 -20 -18 -25 -18 -5 0
-29 -9 -54 -20 -24 -11 -65 -29 -91 -40 -27 -12 -55 -25 -63 -30 -8 -6 -22
-13 -30 -16 -15 -5 -55 -23 -115 -49 -89 -40 -176 -80 -222 -101 -28 -13 -56
-24 -60 -24 -5 0 -23 -10 -39 -22 -25 -20 -29 -27 -23 -53 4 -16 7 -47 8 -67
1 -36 1 -37 59 -47 31 -6 71 -15 87 -21 17 -5 48 -12 70 -15 22 -4 56 -12 75
-17 19 -6 63 -17 98 -25 68 -14 151 -33 252 -56 36 -9 106 -25 155 -36 50 -11
106 -25 125 -31 19 -5 46 -10 59 -10 22 0 23 2 19 55 -3 30 -7 58 -10 61 -3 3
-37 12 -75 21 -37 8 -95 21 -128 29 -33 7 -85 19 -115 25 -30 6 -77 17 -105
25 -88 25 -214 54 -232 54 -10 0 -52 11 -93 24 l-75 24 45 20 c51 22 142 63
215 97 28 12 84 37 125 55 41 18 116 52 165 75 50 23 121 55 159 70 l68 29 -6
55 c-4 30 -11 60 -17 67 -5 6 -31 15 -57 19 -26 4 -67 12 -92 20 -59 16 -170
44 -325 80 -183 43 -225 54 -280 69 l-60 18 36 18 c19 10 129 60 245 110 115
50 227 100 249 110 22 10 60 27 85 38 25 10 69 30 98 43 l52 24 0 55 c0 30 -4
60 -8 67 -5 8 -97 -28 -297 -116z"/>
<path d="M860 6430 c-5 -10 -10 -39 -10 -63 0 -50 10 -57 85 -57 22 0 58 -5
79 -11 22 -6 80 -14 130 -19 199 -18 351 -49 412 -85 57 -34 92 -82 111 -152
13 -52 13 -65 -3 -146 -16 -86 -19 -92 -68 -140 -45 -44 -60 -53 -121 -67 -75
-16 -78 -16 -365 25 -58 9 -143 20 -190 26 -47 5 -99 12 -116 15 -31 6 -32 5
-43 -46 -15 -72 -14 -77 17 -85 27 -7 168 -25 352 -45 52 -6 114 -15 138 -20
102 -24 246 -7 338 39 78 39 150 146 175 262 17 78 7 234 -19 290 -61 130
-188 206 -384 229 -146 17 -251 30 -343 45 -165 26 -164 26 -175 5z"/>
<path d="M9207 4967 c-72 -25 -152 -95 -191 -167 -29 -53 -66 -183 -66 -232 0
-15 6 -47 14 -70 8 -24 17 -54 20 -68 3 -14 14 -35 24 -48 l18 -23 42 23 c47
26 49 33 25 68 -26 36 -25 210 1 260 46 87 134 150 211 150 43 0 45 -1 45 -28
0 -15 -4 -32 -9 -37 -9 -9 -18 -49 -56 -255 -8 -41 -18 -89 -23 -106 -5 -17
-13 -62 -17 -101 l-7 -70 32 -7 c103 -20 207 1 297 60 143 94 196 317 112 474
-86 161 -296 240 -472 177z m274 -137 c22 0 93 -79 115 -128 30 -68 30 -107 1
-174 -43 -97 -94 -139 -189 -156 -72 -14 -69 -25 -38 148 6 36 18 88 26 115 8
28 17 79 20 115 7 70 19 94 41 85 8 -3 19 -5 24 -5z"/>
<path d="M1066 4938 c-9 -12 -16 -29 -16 -37 0 -13 -38 -101 -44 -101 -1 0
-26 29 -54 65 -29 36 -61 65 -70 65 -21 0 -42 -19 -42 -37 0 -15 72 -117 90
-128 5 -3 10 -12 10 -19 0 -9 -22 -16 -67 -20 -96 -10 -103 -13 -103 -44 0
-48 10 -53 70 -37 30 8 69 15 87 15 36 0 36 11 -8 -118 -25 -70 -19 -85 30
-80 20 3 28 13 44 63 41 123 33 117 80 60 93 -110 81 -101 111 -82 33 22 33
35 -1 72 -33 35 -73 92 -73 104 0 8 14 12 107 26 48 8 66 24 61 57 -3 20 -8
23 -48 21 -25 -1 -62 -7 -82 -14 -67 -22 -71 -11 -30 86 30 72 33 88 21 96
-25 15 -57 10 -73 -13z"/>
<path d="M8866 4221 c-9 -10 -19 -35 -23 -54 -5 -33 -3 -37 30 -50 55 -23 54
-35 -5 -61 -69 -30 -121 -84 -161 -166 -29 -60 -32 -73 -32 -165 0 -79 4 -108
19 -135 71 -132 150 -192 299 -225 73 -16 82 -16 144 -1 80 21 140 54 186 105
37 41 79 117 91 165 10 41 8 154 -3 194 -9 31 -9 32 17 26 15 -4 38 -13 52
-20 14 -7 50 -24 80 -38 30 -13 86 -38 124 -55 38 -17 74 -31 81 -31 7 0 21
21 31 47 11 27 21 51 22 56 2 4 -23 19 -55 33 -32 14 -80 36 -108 49 -27 13
-113 51 -190 85 -77 34 -167 74 -200 90 -33 15 -94 42 -135 60 -41 18 -112 50
-158 71 -46 22 -84 39 -86 39 -2 0 -11 -8 -20 -19z m236 -227 c181 -46 267
-206 194 -359 -42 -88 -139 -155 -226 -155 -66 0 -171 52 -226 111 -73 80 -72
225 3 317 43 53 72 72 131 88 61 16 55 16 124 -2z"/>
<path d="M1750 4188 c-105 -30 -153 -134 -119 -263 22 -84 40 -211 34 -242 -6
-35 -46 -73 -78 -73 -79 0 -160 133 -170 278 -4 72 -13 82 -69 82 -32 0 -39
-4 -44 -26 -4 -15 -2 -49 5 -76 6 -27 11 -62 11 -77 0 -14 6 -35 14 -46 7 -11
16 -33 20 -50 8 -32 69 -116 110 -152 64 -56 140 -68 219 -34 101 44 130 154
82 314 -8 26 -17 81 -21 121 -6 71 -5 76 19 100 28 28 65 33 100 14 62 -33
127 -183 127 -295 0 -86 4 -93 55 -93 59 0 72 31 56 127 -7 38 -14 81 -16 96
-3 16 -21 63 -41 104 -47 99 -120 175 -186 191 -54 14 -61 14 -108 0z"/>
<path d="M2113 3628 l-23 -32 39 -41 c66 -69 77 -114 41 -165 -16 -23 -341
-240 -384 -256 -9 -3 -32 25 -66 80 -29 47 -56 86 -61 86 -4 0 -23 -9 -42 -20
-36 -22 -40 -47 -11 -71 8 -6 14 -17 14 -24 0 -6 14 -31 30 -53 17 -23 30 -47
30 -54 -1 -13 -78 -71 -111 -83 -22 -8 -15 -32 25 -79 l32 -39 53 37 c29 20
57 36 61 36 23 0 42 -16 55 -46 17 -41 51 -45 90 -11 l25 22 -30 45 c-16 25
-30 48 -30 52 0 7 85 64 245 163 169 104 215 156 215 243 0 75 -55 175 -120
220 -43 29 -51 28 -77 -10z"/>
<path d="M8531 3464 c-165 -108 -284 -312 -252 -432 30 -111 146 -179 238
-140 31 13 104 70 176 138 65 61 125 100 153 100 13 0 36 -11 51 -24 23 -20
28 -32 27 -68 0 -24 -9 -61 -20 -83 -19 -41 -102 -130 -163 -175 l-34 -25 22
-43 c12 -23 27 -42 34 -42 21 0 69 37 139 106 90 89 138 184 138 273 0 99 -46
168 -132 197 -46 15 -53 15 -104 -1 -42 -13 -75 -36 -150 -103 -53 -48 -110
-97 -127 -109 -50 -37 -98 -27 -125 24 -39 72 43 208 179 298 38 26 69 51 69
56 0 20 -41 89 -53 88 -6 0 -36 -16 -66 -35z"/>
<path d="M2397 3094 c-8 -46 10 -70 57 -79 72 -16 146 -77 194 -163 17 -33 22
-57 22 -119 0 -67 -4 -84 -25 -116 -14 -20 -29 -37 -34 -37 -4 0 -65 64 -136
143 -151 169 -264 287 -275 287 -17 0 -60 -43 -93 -92 -38 -58 -67 -146 -67
-202 0 -96 63 -225 138 -285 91 -72 206 -104 294 -82 135 34 238 115 292 231
25 55 30 77 30 145 0 73 -4 88 -37 156 -66 132 -194 236 -308 247 l-46 4 -6
-38z m-73 -338 c171 -183 223 -244 215 -249 -2 -1 -19 -13 -38 -26 -30 -21
-41 -23 -112 -19 -89 5 -116 21 -193 111 -39 46 -40 49 -40 125 0 63 5 85 25
119 13 24 29 43 36 43 6 0 54 -47 107 -104z"/>
<path d="M8056 2918 c-14 -17 -26 -39 -26 -49 0 -15 159 -171 408 -399 l113
-103 40 39 c21 21 39 42 39 46 0 7 -93 99 -335 329 -143 137 -181 169 -197
169 -8 0 -27 -14 -42 -32z"/>
<path d="M2975 2593 c-29 -44 -63 -92 -164 -234 -99 -140 -114 -176 -114 -269
-1 -93 16 -131 88 -199 78 -74 144 -101 244 -101 45 0 81 -3 81 -7 0 -5 -9
-19 -20 -33 -29 -38 -24 -56 24 -89 l44 -31 39 56 c21 31 54 78 73 106 19 27
66 95 105 151 38 56 84 120 102 143 18 23 33 45 33 49 0 5 8 18 19 29 10 12
26 33 35 48 l17 26 -45 32 c-30 20 -51 28 -60 23 -13 -8 -93 -115 -168 -228
-53 -80 -148 -171 -187 -178 -60 -12 -105 -7 -156 17 -98 46 -138 101 -138
187 1 52 6 69 39 122 21 34 52 80 69 102 17 22 43 58 58 80 15 22 45 66 67 98
22 32 40 64 40 71 0 12 -74 66 -91 66 -5 0 -20 -17 -34 -37z"/>
<path d="M7725 2609 c-85 -45 -156 -139 -135 -179 6 -11 22 -23 36 -26 22 -6
32 1 70 44 48 55 89 70 141 52 29 -11 85 -69 170 -179 24 -30 60 -73 81 -95
22 -23 45 -52 52 -66 12 -23 10 -26 -31 -60 -24 -19 -59 -49 -78 -66 l-34 -31
28 -36 c15 -21 32 -37 37 -37 5 0 44 30 86 66 l77 65 25 -28 c14 -15 35 -41
47 -57 27 -34 51 -31 100 12 l32 28 -52 63 -52 64 43 36 c23 20 42 41 42 47 0
19 -40 64 -57 64 -8 0 -32 -13 -53 -30 -21 -16 -42 -30 -46 -30 -5 0 -23 20
-41 43 -17 23 -66 83 -108 132 -42 50 -94 111 -115 136 -73 87 -178 114 -265
68z"/>
<path d="M8705 2303 c-33 -36 -33 -81 0 -117 34 -37 77 -35 117 4 26 27 30 36
25 67 -9 50 -32 73 -78 73 -29 0 -44 -7 -64 -27z"/>
<path d="M7304 2297 c-73 -19 -174 -79 -223 -132 -39 -42 -81 -120 -81 -149 0
-14 78 -49 91 -40 5 3 17 24 27 47 23 52 88 111 156 143 94 44 224 26 285 -40
31 -33 23 -42 -86 -104 -47 -26 -101 -57 -122 -69 -20 -12 -43 -25 -51 -29
-55 -26 -223 -131 -227 -141 -6 -16 56 -101 103 -143 158 -138 414 -98 539 85
78 113 79 258 3 394 -63 116 -163 179 -290 187 -41 2 -95 -2 -124 -9z m344
-309 c19 -19 15 -128 -6 -170 -41 -79 -88 -117 -175 -143 -53 -15 -61 -15
-114 0 -61 18 -133 67 -133 91 0 7 24 26 52 40 29 15 71 38 93 52 22 14 64 39
94 55 29 16 74 42 100 58 50 31 71 35 89 17z"/>
<path d="M3800 2073 c-23 -50 -39 -85 -140 -298 -35 -71 -71 -148 -80 -171
-17 -39 -53 -63 -65 -43 -8 13 -98 56 -133 64 -29 6 -31 4 -43 -36 -12 -37
-11 -43 6 -55 10 -8 26 -14 36 -14 9 0 22 -6 28 -14 6 -7 24 -16 39 -20 15 -3
36 -13 46 -21 19 -15 19 -16 -4 -62 -37 -76 -64 -96 -122 -91 -35 4 -60 14
-88 37 -46 37 -60 38 -88 8 -31 -33 -28 -51 16 -86 71 -59 189 -87 258 -61 49
19 103 70 129 124 15 30 29 56 32 59 3 3 29 -5 58 -18 l54 -23 15 24 c31 47
25 67 -26 93 -27 13 -48 30 -48 38 0 8 22 60 49 116 142 295 213 448 209 452
-8 6 -102 45 -109 45 -5 0 -18 -21 -29 -47z"/>
<path d="M4172 1897 c-67 -28 -154 -113 -189 -186 -34 -70 -45 -226 -21 -282
9 -19 20 -45 25 -59 22 -53 93 -119 170 -157 74 -36 79 -37 187 -38 99 0 116
3 160 25 56 28 138 105 162 151 28 55 54 151 54 199 0 49 -25 144 -45 170 -6
8 -16 27 -22 41 -11 26 -92 99 -110 99 -5 0 -14 5 -20 11 -51 51 -256 66 -351
26z m230 -96 c99 -34 126 -57 164 -139 59 -127 4 -286 -124 -357 -62 -35 -154
-35 -220 0 -58 30 -69 40 -110 91 -30 40 -32 46 -32 129 0 70 5 96 24 138 30
65 77 110 141 135 65 26 90 26 157 3z"/>
<path d="M5065 1784 c-125 -32 -235 -92 -235 -127 1 -34 34 -67 69 -67 16 0
33 4 36 10 14 22 114 59 176 66 94 9 186 -9 258 -51 68 -40 106 -82 147 -163
27 -52 29 -66 29 -162 0 -93 -4 -112 -27 -163 -28 -59 -113 -153 -158 -173
-94 -42 -104 -44 -195 -44 -109 0 -174 20 -242 76 -23 19 -46 34 -52 34 -13 0
-81 -59 -81 -71 0 -16 65 -69 124 -100 153 -82 360 -81 518 3 73 39 171 141
204 212 13 30 31 93 40 140 32 187 -36 366 -183 477 -94 70 -179 100 -303 104
-58 2 -114 2 -125 -1z"/>
<path d="M6441 1381 c-11 -7 -11 -20 3 -77 25 -104 25 -104 13 -104 -6 0 -46
10 -90 21 -87 24 -97 21 -97 -32 0 -30 15 -39 63 -39 18 0 49 -8 71 -18 l38
-17 -67 -66 -67 -65 28 -33 27 -32 68 67 c38 37 70 66 73 63 9 -9 46 -129 46
-149 0 -21 10 -24 48 -14 28 8 28 34 1 119 -12 36 -19 68 -16 71 3 3 27 -1 54
-9 26 -8 67 -18 91 -21 39 -6 43 -4 52 20 15 38 2 48 -87 69 -43 10 -80 20
-82 22 -3 2 25 34 62 71 l67 67 -26 29 -27 28 -66 -66 c-37 -36 -69 -66 -72
-66 -6 0 -32 87 -44 143 -6 28 -35 36 -64 18z"/>
</g>
</svg>
