<svg version="1.1" id="Layer_1" xmlns="http://www.w3.org/2000/svg" xmlns:xlink="http://www.w3.org/1999/xlink" x="0px" y="0px"
	 width="100%" viewBox="0 0 355 355" enable-background="new 0 0 355 355" xml:space="preserve">
<path fill="#000000" opacity="1.000000" stroke="none" 
	d="
M232.000000,356.000000 
	C154.666687,356.000000 77.833359,356.000000 1.000031,356.000000 
	C1.000021,237.666702 1.000021,119.333405 1.000010,1.000079 
	C119.333275,1.000052 237.666550,1.000052 355.999878,1.000026 
	C355.999908,119.333252 355.999908,237.666504 355.999939,355.999878 
	C314.833344,356.000000 273.666656,356.000000 232.000000,356.000000 
M40.466160,200.868118 
	C40.698917,200.647598 40.910294,200.408203 41.134766,200.053253 
	C41.134766,200.053253 40.853077,199.904892 40.483009,200.205963 
	C40.241390,200.417053 40.019341,200.647049 39.498196,201.169846 
	C39.294189,201.364426 39.119808,201.582687 38.711174,202.046402 
	C38.635860,202.328598 38.560547,202.610794 38.485241,202.892990 
	C38.713734,202.601196 38.942226,202.309402 39.519550,201.787643 
	C39.739182,201.610550 39.933647,201.409149 40.466160,200.868118 
M59.171101,200.507294 
	C59.362980,200.715057 59.582401,200.887848 59.919365,201.110123 
	C59.919365,201.110123 60.026508,200.828812 59.793606,200.481064 
	C59.616703,200.260208 59.412777,200.068024 59.075901,199.872238 
	C59.075901,199.872238 58.909412,200.178833 59.171101,200.507294 
M52.070805,217.070114 
	C52.070805,217.070114 51.874599,216.991684 51.819386,217.053482 
	C51.819386,217.053482 52.008137,217.128113 52.070805,217.070114 
M56.248020,214.988617 
	C56.248020,214.988617 56.157257,214.767029 56.157257,214.767029 
	C56.157257,214.767029 55.940666,214.904205 55.822418,215.005890 
	C55.822418,215.005890 55.910194,215.236496 55.910194,215.236496 
	C55.910194,215.236496 56.145195,215.079941 56.248020,214.988617 
M293.008331,244.675064 
	C293.008331,244.675064 292.665375,244.816559 292.665375,244.816559 
	C292.665375,244.816559 292.777557,245.184525 293.037994,245.585419 
	C293.235016,245.837631 293.456665,246.065964 294.176300,246.626526 
	C294.731720,246.820862 295.287140,247.015213 295.999359,247.307434 
	C295.999359,247.307434 296.305603,247.152191 296.305603,247.152191 
	C296.305603,247.152191 296.224792,246.797729 295.806763,246.411346 
	C295.292297,246.174530 294.777832,245.937729 293.937408,245.355133 
	C293.710907,245.130844 293.460632,244.937225 293.008331,244.675064 
M255.031647,289.732513 
	C255.031647,289.732513 254.726852,289.872833 254.726852,289.872833 
	C254.726852,289.872833 254.775711,290.201599 254.934021,290.260834 
	C255.210068,290.209656 255.302597,290.044922 255.031647,289.732513 
M123.220802,49.050861 
	C123.220802,49.050861 123.103767,48.755684 123.103767,48.755684 
	C123.103767,48.755684 122.817039,48.938004 122.735085,49.041203 
	C122.735085,49.041203 122.853241,49.262424 122.853241,49.262424 
	C122.853241,49.262424 123.101234,49.187809 123.220802,49.050861 
M91.312454,281.048004 
	C91.312454,281.048004 91.177925,280.668854 91.177925,280.668854 
	C91.177925,280.668854 90.790062,280.853271 90.561829,281.036530 
	C90.758804,281.094330 90.955772,281.152161 91.312454,281.048004 
M119.789757,45.930443 
	C119.789757,45.930443 119.910622,46.214905 119.910622,46.214905 
	C119.910622,46.214905 120.205681,46.103539 120.380127,45.962299 
	C120.380127,45.962299 120.259758,45.584003 120.259758,45.584003 
	C120.259758,45.584003 119.885605,45.791130 119.789757,45.930443 
M289.023376,242.341644 
	C289.023376,242.341644 289.351379,242.193436 289.351379,242.193436 
	C289.351379,242.193436 289.215149,241.833221 289.019226,241.603912 
	C288.787262,241.628296 288.555328,241.652664 288.323364,241.677032 
	C288.508575,241.853745 288.693756,242.030457 289.023376,242.341644 
M72.637077,269.992798 
	C72.822578,270.050659 73.008072,270.108521 73.237022,270.027588 
	C73.189003,269.789948 73.045822,269.712128 72.637077,269.992798 
M44.222736,198.061386 
	C44.222736,198.061386 44.300304,197.731125 44.300304,197.731125 
	C44.300304,197.731125 43.886597,197.936951 43.854118,198.010590 
	C43.854118,198.010590 44.061775,198.115601 44.222736,198.061386 
M244.210739,281.482819 
	C244.042419,281.734222 243.874084,281.985596 243.866302,282.524811 
	C244.132523,282.555481 244.398758,282.586151 244.664978,282.616821 
	C244.559631,282.323914 244.454285,282.031006 244.210739,281.482819 
M248.845886,290.460327 
	C249.066010,290.377686 249.286118,290.295013 249.506241,290.212372 
	C249.418655,290.078674 249.331085,289.944946 249.156555,289.516693 
	C248.908600,289.493744 248.660629,289.470795 248.412674,289.447876 
	C248.493988,289.733124 248.575302,290.018402 248.845886,290.460327 
M77.588089,252.892365 
	C77.581749,253.094345 77.575417,253.296341 77.569069,253.498306 
	C77.789047,253.391098 78.009026,253.283890 78.392395,252.987930 
	C78.392395,252.987930 78.245270,252.569626 78.245270,252.569626 
	C78.245270,252.569626 77.808609,252.767303 77.588089,252.892365 
M292.524323,265.833984 
	C292.388306,266.155579 292.252289,266.477142 292.116241,266.798706 
	C292.480438,266.594696 292.844604,266.390656 293.276581,266.023621 
	C293.276581,266.023621 293.177856,265.723053 293.177856,265.723053 
	C293.177856,265.723053 292.890381,265.799988 292.524323,265.833984 
M274.971588,260.696960 
	C274.971588,260.696960 274.687958,260.819977 274.687958,260.819977 
	C274.687958,260.819977 274.795685,261.119354 274.847107,261.559814 
	C275.173340,261.762756 275.499603,261.965698 275.825836,262.168640 
	C275.584686,261.712463 275.343567,261.256287 274.971588,260.696960 
M57.015488,204.043365 
	C57.015488,204.043365 57.013000,203.988266 56.878571,203.781509 
	C56.709007,203.697052 56.539444,203.612595 56.369877,203.528137 
	C56.576073,203.689621 56.782272,203.851120 57.015488,204.043365 
M29.025982,162.571884 
	C28.913509,162.813522 28.801039,163.055145 28.712986,163.833862 
	C28.874149,164.532791 29.035313,165.231735 29.196474,165.930664 
	C29.465076,165.867371 29.733677,165.804077 30.002279,165.740784 
	C29.763273,164.722214 29.524267,163.703644 29.025982,162.571884 
M230.521011,312.308472 
	C228.989365,321.406433 222.801102,315.643066 218.493317,315.407898 
	C218.951340,318.267792 219.305389,320.478485 219.745270,323.225128 
	C224.515152,321.454529 229.153366,319.732819 234.268677,317.833984 
	C233.163696,315.847412 232.100891,313.936676 231.282776,311.877167 
	C231.399170,311.662384 231.515579,311.447571 231.631973,311.232758 
	C231.516159,311.228210 231.324951,311.179443 231.297287,311.226593 
	C231.162155,311.456909 231.070694,311.712860 230.521011,312.308472 
M59.902962,88.791733 
	C60.617046,87.468422 61.331135,86.145111 62.045219,84.821800 
	C59.253727,85.210945 56.135750,86.028214 55.682476,87.609367 
	C55.178196,89.368446 57.100853,91.823257 57.966972,93.975189 
	C58.371185,93.807076 58.775398,93.638969 59.179607,93.470856 
	C59.325645,92.069069 59.471684,90.667274 59.902962,88.791733 
M67.754967,95.782890 
	C66.990021,94.273972 66.248138,92.751541 65.394234,91.294762 
	C65.350044,91.219368 64.348930,91.704872 63.793335,91.929237 
	C64.665451,93.069885 65.517166,94.227257 66.427200,95.336807 
	C66.605087,95.553680 67.009071,95.585114 67.754967,95.782890 
M225.385269,310.806549 
	C222.977982,311.270752 220.570679,311.734985 218.163376,312.199188 
	C218.375916,312.800537 218.588455,313.401917 218.800980,314.003265 
	C220.976120,313.096710 223.151245,312.190125 225.385269,310.806549 
M71.459297,283.923767 
	C70.333862,283.456573 69.208435,282.989349 68.083008,282.522156 
	C67.935493,283.068481 67.787979,283.614838 67.640457,284.161194 
	C68.911118,284.247101 70.181770,284.333038 71.459297,283.923767 
M93.560104,273.570831 
	C93.183052,274.098999 92.806000,274.627167 92.428940,275.155304 
	C92.975204,275.250458 93.521469,275.345581 94.067726,275.440735 
	C94.039238,274.835144 94.010757,274.229523 93.560104,273.570831 
M42.560944,219.477325 
	C41.990368,219.287476 41.419792,219.097626 40.849220,218.907776 
	C40.833462,219.347473 40.817707,219.787186 40.801949,220.226883 
	C41.353146,220.100571 41.904346,219.974243 42.560944,219.477325 
M42.359379,209.481476 
	C42.276375,208.920441 42.193371,208.359421 42.110367,207.798386 
	C41.888500,207.815735 41.666637,207.833084 41.444775,207.850449 
	C41.444775,208.888260 41.444775,209.926071 41.444767,210.963882 
	C41.748714,210.610641 42.052662,210.257401 42.359379,209.481476 
M78.774376,258.519897 
	C77.864128,258.378021 76.953873,258.236145 76.043625,258.094299 
	C76.071953,258.602203 76.100273,259.110107 76.128601,259.618042 
	C76.967186,259.401825 77.805779,259.185638 78.774376,258.519897 
M63.446156,86.483963 
	C63.964542,86.303192 64.482925,86.122414 65.001312,85.941643 
	C64.676773,85.482048 64.352242,85.022461 64.027695,84.562866 
	C63.782455,85.068428 63.537212,85.573997 63.446156,86.483963 
M60.896828,214.697235 
	C61.278419,214.676193 61.660015,214.655151 62.041611,214.634094 
	C61.878250,214.266464 61.714893,213.898849 61.551529,213.531219 
	C61.292297,213.821243 61.033066,214.111282 60.896828,214.697235 
M327.390442,212.672806 
	C326.688019,212.801117 325.985626,212.929428 325.283203,213.057739 
	C325.335510,213.385513 325.387817,213.713272 325.440094,214.041031 
	C326.679321,213.833847 327.918549,213.626663 329.157776,213.419479 
	C328.746765,213.157639 328.335754,212.895798 327.390442,212.672806 
M53.054558,267.954651 
	C53.811108,268.327759 54.567657,268.700867 55.324207,269.073975 
	C55.410721,268.737701 55.497231,268.401428 55.583740,268.065125 
	C54.751019,267.913147 53.918293,267.761169 53.054558,267.954651 
M54.329319,93.796150 
	C53.997318,94.128006 53.665318,94.459862 53.333313,94.791710 
	C53.721123,94.985909 54.108932,95.180099 54.496742,95.374290 
	C54.526535,94.932251 54.556332,94.490204 54.329319,93.796150 
M59.910992,219.387939 
	C59.531075,219.626221 59.151157,219.864502 58.771236,220.102768 
	C59.015274,220.272003 59.259312,220.441238 59.503345,220.610474 
	C59.737778,220.226257 59.972210,219.842041 59.910992,219.387939 
M82.138275,298.454376 
	C82.555374,297.980560 82.972466,297.506775 83.389565,297.032959 
	C83.069580,296.816132 82.749596,296.599304 82.429619,296.382477 
	C82.298416,296.938538 82.167213,297.494568 82.138275,298.454376 
M81.751274,278.850311 
	C81.806801,279.266907 81.862328,279.683502 81.917854,280.100098 
	C82.331429,279.959808 82.745003,279.819519 83.158569,279.679199 
	C82.813133,279.361450 82.467690,279.043701 81.751274,278.850311 
M59.002590,209.457870 
	C58.749218,209.176193 58.495846,208.894516 58.242474,208.612823 
	C58.194195,209.088654 58.145916,209.564468 58.097641,210.040298 
	C58.390827,209.952927 58.684010,209.865555 59.002590,209.457870 
M279.602325,263.969330 
	C279.504974,264.301880 279.407623,264.634399 279.310303,264.966949 
	C279.741119,264.986237 280.171906,265.005554 280.602722,265.024872 
	C280.383209,264.680206 280.163696,264.335571 279.602325,263.969330 
M224.487335,56.733498 
	C224.880646,56.802040 225.273956,56.870586 225.667267,56.939129 
	C225.614395,56.525105 225.561508,56.111076 225.508636,55.697052 
	C225.164841,55.935989 224.821030,56.174923 224.487335,56.733498 
M74.504929,277.725586 
	C74.530853,277.984192 74.556778,278.242798 74.582695,278.501404 
	C74.832565,278.369446 75.082443,278.237488 75.332314,278.105530 
	C75.133514,277.939514 74.934708,277.773468 74.504929,277.725586 
M121.903854,68.216690 
	C121.733803,68.382309 121.563759,68.547935 121.393707,68.713554 
	C121.493546,68.810043 121.593391,68.906540 121.693230,69.003029 
	C121.822136,68.796097 121.951042,68.589165 121.903854,68.216690 
M223.116455,62.992908 
	C223.149902,62.760574 223.183350,62.528244 223.216797,62.295914 
	C223.080780,62.290749 222.944748,62.285583 222.808731,62.280415 
	C222.827576,62.514622 222.846436,62.748825 223.116455,62.992908 
M253.627808,297.137177 
	C253.552704,297.545532 253.477600,297.953857 253.402481,298.362213 
	C253.689758,298.387695 253.977020,298.413177 254.264297,298.438660 
	C254.187683,298.028809 254.111069,297.618988 253.627808,297.137177 
M50.251343,201.074539 
	C50.394562,200.981155 50.537781,200.887772 50.681000,200.794388 
	C50.541374,200.832947 50.401749,200.871490 50.251343,201.074539 
M258.056885,298.586884 
	C258.466675,298.537994 258.876434,298.489105 259.286224,298.440186 
	C259.266754,298.289459 259.247284,298.138763 259.227783,297.988037 
	C258.829254,298.090668 258.430756,298.193298 258.056885,298.586884 
M31.070179,226.141235 
	C31.222898,225.938248 31.375620,225.735260 31.528339,225.532257 
	C31.399237,225.446686 31.270136,225.361115 31.141027,225.275543 
	C31.057249,225.520874 30.973469,225.766190 31.070179,226.141235 
M40.741940,225.102768 
	C40.972168,225.020691 41.202400,224.938599 41.432632,224.856506 
	C41.359955,224.740707 41.287273,224.624924 41.214588,224.509125 
	C41.020557,224.649887 40.826527,224.790649 40.741940,225.102768 
M283.932556,244.406448 
	C284.193878,244.699951 284.455231,244.993439 284.716553,245.286942 
	C284.824677,245.188461 284.932800,245.089981 285.040955,244.991501 
	C284.743896,244.734009 284.446808,244.476532 283.932556,244.406448 
M59.579990,266.022675 
	C59.430637,266.225372 59.281284,266.428101 59.131931,266.630798 
	C59.365551,266.700104 59.599171,266.769379 59.832787,266.838684 
	C59.823425,266.588104 59.814060,266.337524 59.579990,266.022675 
M299.861023,254.901779 
	C300.036896,254.994919 300.212738,255.088058 300.388611,255.181183 
	C300.257874,255.037704 300.127167,254.894241 299.861023,254.901779 
M39.014465,214.777939 
	C38.855057,214.719009 38.695652,214.660080 38.536251,214.601151 
	C38.650925,214.691284 38.765602,214.781433 39.014465,214.777939 
M82.513199,260.656525 
	C82.686050,260.694946 82.858902,260.733368 83.031761,260.771790 
	C82.886330,260.675995 82.740906,260.580200 82.513199,260.656525 
M225.650085,42.109421 
	C225.910690,42.121952 226.171295,42.134483 226.431900,42.147015 
	C226.376144,41.923756 226.320389,41.700497 226.264633,41.477238 
	C226.040451,41.606876 225.816284,41.736519 225.650085,42.109421 
M23.991955,165.726974 
	C24.057661,165.482086 24.123367,165.237213 24.189077,164.992325 
	C23.938629,164.993622 23.688183,164.994904 23.437735,164.996201 
	C23.525362,165.239410 23.612991,165.482620 23.991955,165.726974 
M227.505829,49.516251 
	C227.710587,49.552444 227.915329,49.588638 228.120087,49.624825 
	C227.939453,49.517601 227.758804,49.410378 227.505829,49.516251 
M48.506508,223.091675 
	C48.559292,222.941483 48.612080,222.791306 48.664867,222.641113 
	C48.582340,222.747910 48.499809,222.854721 48.506508,223.091675 
M100.027428,274.000366 
	C100.226753,273.954620 100.428680,273.916168 100.619972,273.847931 
	C100.633804,273.842957 100.570282,273.621155 100.542717,273.500183 
	C100.355789,273.594482 100.168861,273.688812 100.027428,274.000366 
M98.097321,278.429535 
	C98.024315,278.428314 97.951309,278.427094 98.097321,278.429535 
M327.214569,207.992523 
	C327.248718,207.785751 327.282867,207.578995 327.317017,207.372223 
	C327.188354,207.362671 327.059692,207.353119 326.931000,207.343552 
	C326.931641,207.555023 326.932251,207.766479 327.214569,207.992523 
M85.239944,255.358353 
	C85.205681,255.602234 85.171417,255.846115 85.137154,256.089996 
	C85.270180,256.086609 85.403198,256.083191 85.536232,256.079803 
	C85.519669,255.834030 85.503113,255.588272 85.239944,255.358353 
M229.702942,307.672363 
	C229.970322,307.857941 230.237717,308.043549 230.505096,308.229126 
	C230.334152,307.950653 230.163223,307.672180 229.702942,307.672363 
M271.838196,258.856445 
	C271.869385,259.043427 271.900574,259.230377 271.931763,259.417358 
	C271.975555,259.237183 272.019348,259.056976 271.838196,258.856445 
M296.065857,261.982513 
	C296.065857,261.982513 296.059814,262.046997 296.065857,261.982513 
M88.675941,276.071075 
	C88.814186,276.100830 88.952431,276.130554 89.090683,276.160278 
	C88.996208,276.093292 88.901733,276.026337 88.675941,276.071075 
M117.963982,50.116768 
	C117.963982,50.116768 118.140991,49.887856 118.140991,49.887856 
	C118.140991,49.887856 117.889305,50.028595 117.963982,50.116768 
M76.135765,273.982086 
	C76.018822,274.138702 75.901871,274.295349 75.784920,274.451965 
	C75.953781,274.352173 76.122650,274.252380 76.135765,273.982086 
M221.005432,65.911369 
	C221.081680,65.678291 221.157928,65.445213 221.234177,65.212135 
	C220.952850,65.222420 220.671524,65.232704 220.390198,65.242989 
	C220.491180,65.469025 220.592163,65.695068 221.005432,65.911369 
M77.924400,270.284149 
	C77.924400,270.284149 78.123993,270.017731 78.123993,270.017731 
	C78.123993,270.017731 77.835106,270.181824 77.924400,270.284149 
M124.724991,64.804688 
	C124.674385,64.794464 124.623772,64.784241 124.724991,64.804688 
M227.123901,323.802460 
	C227.123901,323.802460 227.171600,323.766388 227.123901,323.802460 
M290.545471,249.088287 
	C290.714630,249.128174 290.883759,249.168076 291.052917,249.207962 
	C290.937592,249.122986 290.822266,249.038010 290.545471,249.088287 
M54.234505,264.495605 
	C54.234505,264.495605 54.478333,264.564392 54.478333,264.564392 
	C54.478333,264.564392 54.290691,264.410065 54.234505,264.495605 
M284.130981,266.706696 
	C284.130981,266.706696 284.172577,266.964508 284.172577,266.964508 
	C284.172577,266.964508 284.237640,266.714386 284.130981,266.706696 
M229.385468,43.265831 
	C229.450500,43.238678 229.515549,43.211525 229.385468,43.265831 
M124.805016,44.248051 
	C124.805016,44.248051 124.910835,44.103359 124.910835,44.103359 
	C124.910835,44.103359 124.756393,44.193005 124.805016,44.248051 
M61.666996,204.466599 
	C61.666996,204.466599 61.359890,204.410004 61.359890,204.410004 
	C61.359890,204.410004 61.620735,204.587341 61.666996,204.466599 
M222.389969,50.487103 
	C222.389969,50.487103 222.650818,50.303848 222.650818,50.303848 
	C222.650818,50.303848 222.347366,50.362499 222.389969,50.487103 
M217.613159,63.937538 
	C217.613159,63.937538 217.431641,63.982914 217.431641,63.982914 
	C217.431641,63.982914 217.609528,64.043221 217.613159,63.937538 
M70.893074,256.495392 
	C70.893074,256.495392 71.095001,256.569672 71.095001,256.569672 
	C71.095001,256.569672 70.968048,256.406281 70.893074,256.495392 
M269.330963,256.891724 
	C269.410583,256.852539 269.490204,256.813354 269.330963,256.891724 
M246.642365,286.075897 
	C246.642365,286.075897 246.454620,285.818542 246.454620,285.818542 
	C246.454620,285.818542 246.481110,286.148712 246.642365,286.075897 
M59.971111,261.403717 
	C59.971111,261.403717 59.748779,261.548645 59.748779,261.548645 
	C59.748779,261.548645 60.021057,261.539398 59.971111,261.403717 
M77.099487,281.503601 
	C77.099487,281.503601 76.909164,281.432648 76.909164,281.432648 
	C76.909164,281.432648 77.028488,281.587769 77.099487,281.503601 
M65.495750,263.941589 
	C65.495750,263.941589 65.550781,263.988892 65.495750,263.941589 
M113.411247,51.071758 
	C113.411247,51.071758 113.597305,51.025448 113.597305,51.025448 
	C113.597305,51.025448 113.415604,50.963047 113.411247,51.071758 
M115.514679,55.903397 
	C115.514679,55.903397 115.443008,56.096622 115.443008,56.096622 
	C115.443008,56.096622 115.601250,55.974770 115.514679,55.903397 
M117.453781,59.015491 
	C117.453781,59.015491 117.523392,58.993801 117.453781,59.015491 
M119.577362,65.026260 
	C119.577362,65.026260 119.486343,65.059143 119.577362,65.026260 
M93.972191,269.544891 
	C93.972191,269.544891 93.951088,269.480530 93.972191,269.544891 
M118.515160,61.798767 
	C118.566833,61.841885 118.618515,61.885002 118.515160,61.798767 
M89.018463,271.420349 
	C89.018463,271.420349 88.844002,271.536469 88.844002,271.536469 
	C88.844002,271.536469 89.058556,271.528564 89.018463,271.420349 
M293.332886,252.888947 
	C293.401093,252.855026 293.469299,252.821106 293.332886,252.888947 
M280.934174,242.619324 
	C280.934174,242.619324 281.179474,242.444687 281.179474,242.444687 
	C281.179474,242.444687 280.867554,242.466278 280.934174,242.619324 
M86.872444,299.340637 
	C86.942993,299.341522 87.013542,299.342407 86.872444,299.340637 
M251.993347,301.478333 
	C251.993347,301.478333 252.005554,301.522614 251.993347,301.478333 
M32.053867,222.497574 
	C32.053867,222.497574 32.017246,222.539413 32.053867,222.497574 
M116.078522,47.372829 
	C116.078522,47.372829 115.818665,47.560280 115.818665,47.560280 
	C115.818665,47.560280 116.151047,47.535210 116.078522,47.372829 
M64.918091,218.495377 
	C64.918091,218.495377 64.979401,218.422318 64.918091,218.495377 
M80.709038,251.503418 
	C80.709038,251.503418 81.041298,251.601028 81.041298,251.601028 
	C81.041298,251.601028 80.823532,251.355545 80.709038,251.503418 
M122.463402,59.508862 
	C122.463402,59.508862 122.518692,59.487297 122.463402,59.508862 
M227.386200,310.510468 
	C227.386200,310.510468 227.554993,310.618073 227.554993,310.618073 
	C227.554993,310.618073 227.539291,310.415680 227.386200,310.510468 
M121.441711,57.504265 
	C121.441711,57.504265 121.519974,57.466408 121.441711,57.504265 
M92.514732,277.394440 
	C92.514732,277.394440 92.413475,277.564423 92.413475,277.564423 
	C92.413475,277.564423 92.607262,277.544128 92.514732,277.394440 
M248.612595,304.509277 
	C248.612595,304.509277 248.490356,304.583130 248.612595,304.509277 
M245.518097,277.535034 
	C245.518097,277.535034 245.497513,277.481293 245.518097,277.535034 
M69.394386,88.485291 
	C69.394386,88.485291 69.516464,88.411301 69.394386,88.485291 
M247.577332,278.508759 
	C247.577332,278.508759 247.474228,278.565765 247.577332,278.508759 
M223.636078,47.518299 
	C223.636078,47.518299 223.449631,47.411644 223.449631,47.411644 
	C223.449631,47.411644 223.475647,47.625740 223.636078,47.518299 
M87.504784,297.409180 
	C87.504784,297.409180 87.564575,297.515839 87.504784,297.409180 
M95.500610,282.428192 
	C95.500610,282.428192 95.542900,282.511780 95.500610,282.428192 
M250.467010,282.692596 
	C250.467010,282.692596 250.586624,282.449371 250.586624,282.449371 
	C250.586624,282.449371 250.322281,282.498932 250.467010,282.692596 
M89.610977,283.521515 
	C89.610977,283.521515 89.479630,283.604584 89.610977,283.521515 
M251.582504,284.512146 
	C251.582504,284.512146 251.474930,284.573425 251.582504,284.512146 
M93.595261,286.491791 
	C93.595261,286.491791 93.470047,286.564392 93.595261,286.491791 
M90.370697,292.476135 
	C90.370697,292.476135 90.545395,292.577545 90.545395,292.577545 
	C90.545395,292.577545 90.522102,292.375244 90.370697,292.476135 
M252.590683,286.516357 
	C252.590683,286.516357 252.472122,286.586823 252.590683,286.516357 
M74.654465,254.516281 
	C74.654465,254.516281 74.457809,254.409393 74.457809,254.409393 
	C74.457809,254.409393 74.489174,254.628845 74.654465,254.516281 
M45.552589,202.495773 
	C45.552589,202.495773 45.483715,202.527328 45.552589,202.495773 
M288.417786,247.491684 
	C288.417786,247.491684 288.533325,247.426346 288.417786,247.491684 
M43.465431,203.509338 
	C43.465431,203.509338 43.517956,203.490158 43.465431,203.509338 
M68.429924,257.498413 
	C68.429924,257.498413 68.527489,257.447113 68.429924,257.498413 
M281.494537,239.590637 
	C281.494537,239.590637 281.435364,239.484955 281.494537,239.590637 
M329.338135,209.488922 
	C329.338135,209.488922 329.557037,209.609375 329.557037,209.609375 
	C329.557037,209.609375 329.522034,209.360672 329.338135,209.488922 
M52.450890,221.504440 
	C52.450890,221.504440 52.517536,221.474365 52.450890,221.504440 
M55.487492,220.469589 
	C55.487492,220.469589 55.503189,220.517227 55.487492,220.469589 
M100.393593,269.498260 
	C100.393593,269.498260 100.516014,269.425995 100.393593,269.498260 
M96.490463,268.463898 
	C96.490463,268.463898 96.511497,268.519104 96.490463,268.463898 
M124.411957,70.494370 
	C124.411957,70.494370 124.517799,70.435532 124.411957,70.494370 
M47.538349,217.491837 
	C47.538349,217.491837 47.480999,217.513794 47.538349,217.491837 
M80.448997,264.498474 
	C80.448997,264.498474 80.518501,264.466095 80.448997,264.498474 
M91.564484,270.501282 
	C91.564484,270.501282 91.477005,270.545807 91.564484,270.501282 
M70.354874,261.485321 
	C70.354874,261.485321 70.564499,261.598602 70.564499,261.598602 
	C70.564499,261.598602 70.530655,261.368347 70.354874,261.485321 
M62.397655,260.492462 
	C62.397655,260.492462 62.525684,260.416351 62.397655,260.492462 
M279.591888,258.512634 
	C279.591888,258.512634 279.469055,258.585114 279.591888,258.512634 
M47.466770,201.512146 
	C47.466770,201.512146 47.511986,201.499222 47.466770,201.512146 
z"/>
<path fill="#000000" opacity="1.000000" stroke="none" 
	d="
M231.038101,312.025940 
	C232.100891,313.936676 233.163696,315.847412 234.268677,317.833984 
	C229.153366,319.732819 224.515152,321.454529 219.745270,323.225128 
	C219.305389,320.478485 218.951340,318.267792 218.493317,315.407898 
	C222.801102,315.643066 228.989365,321.406433 230.760742,312.150940 
	C231.000458,311.993378 231.038101,312.025940 231.038101,312.025940 
z"/>
<path fill="#000000" opacity="1.000000" stroke="none" 
	d="
M59.760338,89.028610 
	C59.471684,90.667274 59.325645,92.069069 59.179607,93.470856 
	C58.775398,93.638969 58.371185,93.807076 57.966972,93.975189 
	C57.100853,91.823257 55.178196,89.368446 55.682476,87.609367 
	C56.135750,86.028214 59.253727,85.210945 62.045219,84.821800 
	C61.331135,86.145111 60.617046,87.468422 59.760338,89.028610 
z"/>
<path fill="#000000" opacity="1.000000" stroke="none" 
	d="
M67.531868,95.742493 
	C67.009071,95.585114 66.605087,95.553680 66.427200,95.336807 
	C65.517166,94.227257 64.665451,93.069885 63.793335,91.929237 
	C64.348930,91.704872 65.350044,91.219368 65.394234,91.294762 
	C66.248138,92.751541 66.990021,94.273972 67.531868,95.742493 
z"/>
<path fill="#000000" opacity="1.000000" stroke="none" 
	d="
M225.355820,311.045044 
	C223.151245,312.190125 220.976120,313.096710 218.800980,314.003265 
	C218.588455,313.401917 218.375916,312.800537 218.163376,312.199188 
	C220.570679,311.734985 222.977982,311.270752 225.355820,311.045044 
z"/>
<path fill="#000000" opacity="1.000000" stroke="none" 
	d="
M71.455856,284.171356 
	C70.181770,284.333038 68.911118,284.247101 67.640457,284.161194 
	C67.787979,283.614838 67.935493,283.068481 68.083008,282.522156 
	C69.208435,282.989349 70.333862,283.456573 71.455856,284.171356 
z"/>
<path fill="#000000" opacity="1.000000" stroke="none" 
	d="
M93.771194,273.597382 
	C94.010757,274.229523 94.039238,274.835144 94.067726,275.440735 
	C93.521469,275.345581 92.975204,275.250458 92.428940,275.155334 
	C92.806000,274.627167 93.183052,274.098999 93.771194,273.597382 
z"/>
<path fill="#000000" opacity="1.000000" stroke="none" 
	d="
M42.508244,219.662628 
	C41.904346,219.974243 41.353146,220.100571 40.801949,220.226883 
	C40.817707,219.787186 40.833462,219.347473 40.849220,218.907776 
	C41.419792,219.097626 41.990368,219.287476 42.508244,219.662628 
z"/>
<path fill="#000000" opacity="1.000000" stroke="none" 
	d="
M42.357994,209.692810 
	C42.052662,210.257401 41.748714,210.610641 41.444771,210.963882 
	C41.444775,209.926071 41.444775,208.888260 41.444775,207.850449 
	C41.666637,207.833084 41.888500,207.815735 42.110367,207.798386 
	C42.193371,208.359421 42.276375,208.920441 42.357994,209.692810 
z"/>
<path fill="#000000" opacity="1.000000" stroke="none" 
	d="
M78.709366,258.744659 
	C77.805779,259.185638 76.967186,259.401825 76.128601,259.618042 
	C76.100273,259.110107 76.071953,258.602203 76.043625,258.094299 
	C76.953873,258.236145 77.864128,258.378021 78.709366,258.744659 
z"/>
<path fill="#000000" opacity="1.000000" stroke="none" 
	d="
M63.369064,86.281769 
	C63.537212,85.573997 63.782455,85.068428 64.027695,84.562866 
	C64.352242,85.022461 64.676773,85.482048 65.001312,85.941643 
	C64.482925,86.122414 63.964542,86.303192 63.369064,86.281769 
z"/>
<path fill="#000000" opacity="1.000000" stroke="none" 
	d="
M60.835335,214.549271 
	C61.033066,214.111282 61.292297,213.821243 61.551529,213.531219 
	C61.714893,213.898849 61.878250,214.266464 62.041611,214.634094 
	C61.660015,214.655151 61.278419,214.676193 60.835335,214.549271 
z"/>
<path fill="#000000" opacity="1.000000" stroke="none" 
	d="
M327.657593,212.653381 
	C328.335754,212.895798 328.746765,213.157639 329.157776,213.419479 
	C327.918549,213.626663 326.679321,213.833847 325.440094,214.041031 
	C325.387817,213.713272 325.335510,213.385513 325.283203,213.057739 
	C325.985626,212.929428 326.688019,212.801117 327.657593,212.653381 
z"/>
<path fill="#000000" opacity="1.000000" stroke="none" 
	d="
M53.070061,267.781921 
	C53.918293,267.761169 54.751019,267.913147 55.583740,268.065125 
	C55.497231,268.401428 55.410721,268.737701 55.324207,269.073975 
	C54.567657,268.700867 53.811108,268.327759 53.070061,267.781921 
z"/>
<path fill="#000000" opacity="1.000000" stroke="none" 
	d="
M54.457722,93.922157 
	C54.556332,94.490204 54.526535,94.932251 54.496742,95.374290 
	C54.108932,95.180099 53.721123,94.985909 53.333313,94.791710 
	C53.665318,94.459862 53.997318,94.128006 54.457722,93.922157 
z"/>
<path fill="#000000" opacity="1.000000" stroke="none" 
	d="
M60.058815,219.422882 
	C59.972210,219.842041 59.737778,220.226257 59.503349,220.610474 
	C59.259312,220.441238 59.015274,220.272003 58.771240,220.102768 
	C59.151157,219.864502 59.531075,219.626221 60.058815,219.422882 
z"/>
<path fill="#000000" opacity="1.000000" stroke="none" 
	d="
M82.087143,298.252502 
	C82.167213,297.494568 82.298416,296.938538 82.429619,296.382477 
	C82.749596,296.599304 83.069580,296.816132 83.389565,297.032959 
	C82.972466,297.506775 82.555374,297.980560 82.087143,298.252502 
z"/>
<path fill="#000000" opacity="1.000000" stroke="none" 
	d="
M81.936760,278.788147 
	C82.467690,279.043701 82.813133,279.361450 83.158569,279.679199 
	C82.745003,279.819519 82.331429,279.959808 81.917854,280.100098 
	C81.862328,279.683502 81.806801,279.266907 81.936760,278.788147 
z"/>
<path fill="#000000" opacity="1.000000" stroke="none" 
	d="
M58.989891,209.618027 
	C58.684010,209.865555 58.390827,209.952927 58.097641,210.040298 
	C58.145916,209.564468 58.194195,209.088654 58.242470,208.612823 
	C58.495846,208.894516 58.749218,209.176193 58.989891,209.618027 
z"/>
<path fill="#000000" opacity="1.000000" stroke="none" 
	d="
M279.773254,263.980103 
	C280.163696,264.335571 280.383209,264.680206 280.602722,265.024872 
	C280.171906,265.005554 279.741119,264.986237 279.310303,264.966949 
	C279.407623,264.634399 279.504974,264.301880 279.773254,263.980103 
z"/>
<path fill="#000000" opacity="1.000000" stroke="none" 
	d="
M224.482285,56.573677 
	C224.821030,56.174923 225.164841,55.935989 225.508636,55.697052 
	C225.561508,56.111076 225.614395,56.525105 225.667267,56.939129 
	C225.273956,56.870586 224.880646,56.802040 224.482285,56.573677 
z"/>
<path fill="#000000" opacity="1.000000" stroke="none" 
	d="
M74.620415,277.666504 
	C74.934708,277.773468 75.133514,277.939514 75.332314,278.105530 
	C75.082443,278.237488 74.832565,278.369446 74.582703,278.501404 
	C74.556778,278.242798 74.530853,277.984192 74.620415,277.666504 
z"/>
<path fill="#000000" opacity="1.000000" stroke="none" 
	d="
M121.991905,68.299461 
	C121.951042,68.589165 121.822136,68.796097 121.693230,69.003029 
	C121.593391,68.906540 121.493546,68.810043 121.393707,68.713554 
	C121.563759,68.547935 121.733803,68.382309 121.991905,68.299461 
z"/>
<path fill="#000000" opacity="1.000000" stroke="none" 
	d="
M222.990875,62.987968 
	C222.846436,62.748825 222.827576,62.514622 222.808731,62.280418 
	C222.944748,62.285583 223.080780,62.290749 223.216797,62.295914 
	C223.183350,62.528244 223.149902,62.760574 222.990875,62.987968 
z"/>
<path fill="#000000" opacity="1.000000" stroke="none" 
	d="
M253.831131,297.173157 
	C254.111069,297.618988 254.187683,298.028809 254.264297,298.438660 
	C253.977020,298.413177 253.689758,298.387695 253.402481,298.362213 
	C253.477600,297.953857 253.552704,297.545532 253.831131,297.173157 
z"/>
<path fill="#000000" opacity="1.000000" stroke="none" 
	d="
M50.256733,200.992279 
	C50.401749,200.871490 50.541374,200.832947 50.681000,200.794388 
	C50.537781,200.887772 50.394562,200.981155 50.256733,200.992279 
z"/>
<path fill="#000000" opacity="1.000000" stroke="none" 
	d="
M258.044556,298.441406 
	C258.430756,298.193298 258.829254,298.090668 259.227783,297.988037 
	C259.247284,298.138763 259.266754,298.289459 259.286224,298.440186 
	C258.876434,298.489105 258.466675,298.537994 258.044556,298.441406 
z"/>
<path fill="#000000" opacity="1.000000" stroke="none" 
	d="
M30.979935,226.076385 
	C30.973469,225.766190 31.057249,225.520874 31.141031,225.275543 
	C31.270136,225.361115 31.399237,225.446686 31.528339,225.532257 
	C31.375620,225.735260 31.222898,225.938248 30.979935,226.076385 
z"/>
<path fill="#000000" opacity="1.000000" stroke="none" 
	d="
M40.687218,225.017090 
	C40.826527,224.790649 41.020557,224.649887 41.214592,224.509125 
	C41.287273,224.624924 41.359955,224.740707 41.432632,224.856506 
	C41.202400,224.938599 40.972168,225.020691 40.687218,225.017090 
z"/>
<path fill="#000000" opacity="1.000000" stroke="none" 
	d="
M284.041138,244.312744 
	C284.446808,244.476532 284.743896,244.734009 285.040955,244.991501 
	C284.932800,245.089981 284.824677,245.188461 284.716553,245.286942 
	C284.455231,244.993439 284.193878,244.699951 284.041138,244.312744 
z"/>
<path fill="#000000" opacity="1.000000" stroke="none" 
	d="
M59.692345,266.054810 
	C59.814060,266.337524 59.823425,266.588104 59.832787,266.838684 
	C59.599171,266.769379 59.365551,266.700104 59.131927,266.630798 
	C59.281284,266.428101 59.430637,266.225372 59.692345,266.054810 
z"/>
<path fill="#000000" opacity="1.000000" stroke="none" 
	d="
M29.285263,162.685074 
	C29.524267,163.703644 29.763273,164.722214 30.002279,165.740784 
	C29.733677,165.804077 29.465076,165.867371 29.196474,165.930664 
	C29.035313,165.231735 28.874149,164.532791 28.849617,163.412079 
	C28.986246,162.990280 29.285263,162.685074 29.285263,162.685074 
z"/>
<path fill="#000000" opacity="1.000000" stroke="none" 
	d="
M299.928711,254.826263 
	C300.127167,254.894241 300.257874,255.037704 300.388611,255.181183 
	C300.212738,255.088058 300.036896,254.994919 299.928711,254.826263 
z"/>
<path fill="#000000" opacity="1.000000" stroke="none" 
	d="
M38.947372,214.824768 
	C38.765602,214.781433 38.650925,214.691284 38.536247,214.601166 
	C38.695652,214.660080 38.855057,214.719009 38.947372,214.824768 
z"/>
<path fill="#000000" opacity="1.000000" stroke="none" 
	d="
M82.554337,260.570465 
	C82.740906,260.580200 82.886330,260.675995 83.031754,260.771790 
	C82.858902,260.733368 82.686050,260.694946 82.554337,260.570465 
z"/>
<path fill="#000000" opacity="1.000000" stroke="none" 
	d="
M225.621094,41.987793 
	C225.816284,41.736519 226.040451,41.606876 226.264633,41.477238 
	C226.320389,41.700497 226.376144,41.923756 226.431900,42.147015 
	C226.171295,42.134483 225.910690,42.121952 225.621094,41.987793 
z"/>
<path fill="#000000" opacity="1.000000" stroke="none" 
	d="
M23.846287,165.726410 
	C23.612991,165.482620 23.525362,165.239410 23.437735,164.996201 
	C23.688183,164.994904 23.938629,164.993622 24.189075,164.992325 
	C24.123367,165.237213 24.057661,165.482086 23.846287,165.726410 
z"/>
<path fill="#000000" opacity="1.000000" stroke="none" 
	d="
M227.541992,49.409698 
	C227.758804,49.410378 227.939453,49.517601 228.120087,49.624828 
	C227.915329,49.588638 227.710587,49.552444 227.541992,49.409698 
z"/>
<path fill="#000000" opacity="1.000000" stroke="none" 
	d="
M48.461895,223.026596 
	C48.499809,222.854721 48.582340,222.747910 48.664867,222.641113 
	C48.612080,222.791306 48.559292,222.941483 48.461895,223.026596 
z"/>
<path fill="#000000" opacity="1.000000" stroke="none" 
	d="
M100.004684,273.891754 
	C100.168861,273.688812 100.355789,273.594482 100.542717,273.500183 
	C100.570282,273.621155 100.633804,273.842957 100.619972,273.847931 
	C100.428680,273.916168 100.226753,273.954620 100.004684,273.891754 
z"/>
<path fill="#000000" opacity="1.000000" stroke="none" 
	d="
M56.988468,204.012604 
	C56.782272,203.851120 56.576073,203.689621 56.369881,203.528137 
	C56.539444,203.612595 56.709007,203.697052 56.939529,203.890884 
	C57.000488,204.000259 56.988468,204.012604 56.988468,204.012604 
z"/>
<path fill="#000000" opacity="1.000000" stroke="none" 
	d="
M97.987808,278.427673 
	C97.951309,278.427094 98.024315,278.428314 97.987808,278.427673 
z"/>
<path fill="#000000" opacity="1.000000" stroke="none" 
	d="
M327.073730,207.985229 
	C326.932251,207.766479 326.931641,207.555023 326.931030,207.343552 
	C327.059692,207.353119 327.188354,207.362671 327.317017,207.372223 
	C327.282867,207.578995 327.248718,207.785751 327.073730,207.985229 
z"/>
<path fill="#000000" opacity="1.000000" stroke="none" 
	d="
M85.363251,255.350433 
	C85.503113,255.588272 85.519669,255.834030 85.536224,256.079803 
	C85.403198,256.083191 85.270180,256.086609 85.137154,256.089996 
	C85.171417,255.846115 85.205681,255.602234 85.363251,255.350433 
z"/>
<path fill="#000000" opacity="1.000000" stroke="none" 
	d="
M229.847610,307.533020 
	C230.163223,307.672180 230.334152,307.950653 230.505096,308.229126 
	C230.237717,308.043549 229.970322,307.857941 229.847610,307.533020 
z"/>
<path fill="#000000" opacity="1.000000" stroke="none" 
	d="
M271.950684,258.866638 
	C272.019348,259.056976 271.975555,259.237183 271.931763,259.417358 
	C271.900574,259.230377 271.869385,259.043427 271.950684,258.866638 
z"/>
<path fill="#000000" opacity="1.000000" stroke="none" 
	d="
M275.102417,260.800110 
	C275.343567,261.256287 275.584686,261.712463 275.825836,262.168640 
	C275.499603,261.965698 275.173340,261.762756 274.899658,261.261292 
	C274.952209,260.962769 275.102417,260.800110 275.102417,260.800110 
z"/>
<path fill="#000000" opacity="1.000000" stroke="none" 
	d="
M296.062836,262.014771 
	C296.059814,262.046997 296.065857,261.982513 296.062836,262.014771 
z"/>
<path fill="#000000" opacity="1.000000" stroke="none" 
	d="
M88.741608,276.015228 
	C88.901733,276.026337 88.996208,276.093292 89.090683,276.160278 
	C88.952431,276.130554 88.814186,276.100830 88.741608,276.015228 
z"/>
<path fill="#000000" opacity="1.000000" stroke="none" 
	d="
M117.926643,50.072681 
	C117.889305,50.028595 118.140991,49.887856 118.140991,49.887856 
	C118.140991,49.887856 117.963982,50.116768 117.926643,50.072681 
z"/>
<path fill="#000000" opacity="1.000000" stroke="none" 
	d="
M76.213638,274.067322 
	C76.122650,274.252380 75.953781,274.352173 75.784920,274.451965 
	C75.901871,274.295349 76.018822,274.138702 76.213638,274.067322 
z"/>
<path fill="#000000" opacity="1.000000" stroke="none" 
	d="
M220.849289,65.916237 
	C220.592163,65.695068 220.491180,65.469025 220.390198,65.242989 
	C220.671524,65.232704 220.952850,65.222420 221.234177,65.212135 
	C221.157928,65.445213 221.081680,65.678291 220.849289,65.916237 
z"/>
<path fill="#000000" opacity="1.000000" stroke="none" 
	d="
M77.879753,270.232971 
	C77.835106,270.181824 78.123993,270.017731 78.123993,270.017731 
	C78.123993,270.017731 77.924400,270.284149 77.879753,270.232971 
z"/>
<path fill="#000000" opacity="1.000000" stroke="none" 
	d="
M124.649078,64.789352 
	C124.623772,64.784241 124.674385,64.794464 124.649078,64.789352 
z"/>
<path fill="#000000" opacity="1.000000" stroke="none" 
	d="
M227.147751,323.784424 
	C227.171600,323.766388 227.123901,323.802460 227.147751,323.784424 
z"/>
<path fill="#000000" opacity="1.000000" stroke="none" 
	d="
M230.982117,311.976562 
	C231.070694,311.712860 231.162155,311.456909 231.297287,311.226593 
	C231.324951,311.179443 231.516159,311.228210 231.631973,311.232788 
	C231.515579,311.447571 231.399170,311.662384 231.160431,311.951538 
	C231.038101,312.025940 231.000458,311.993378 230.982117,311.976562 
z"/>
<path fill="#000000" opacity="1.000000" stroke="none" 
	d="
M290.626221,249.020660 
	C290.822266,249.038010 290.937592,249.122986 291.052917,249.207962 
	C290.883759,249.168076 290.714630,249.128174 290.626221,249.020660 
z"/>
<path fill="#000000" opacity="1.000000" stroke="none" 
	d="
M54.262596,264.452820 
	C54.290691,264.410065 54.478333,264.564392 54.478333,264.564392 
	C54.478333,264.564392 54.234505,264.495605 54.262596,264.452820 
z"/>
<path fill="#000000" opacity="1.000000" stroke="none" 
	d="
M284.184326,266.710541 
	C284.237640,266.714386 284.172577,266.964508 284.172577,266.964508 
	C284.172577,266.964508 284.130981,266.706696 284.184326,266.710541 
z"/>
<path fill="#000000" opacity="1.000000" stroke="none" 
	d="
M293.208801,266.186646 
	C292.844604,266.390656 292.480438,266.594696 292.116272,266.798706 
	C292.252289,266.477142 292.388306,266.155579 292.786835,265.913757 
	C293.049347,265.993530 293.208801,266.186646 293.208801,266.186646 
z"/>
<path fill="#000000" opacity="1.000000" stroke="none" 
	d="
M229.483032,43.225101 
	C229.515549,43.211525 229.450500,43.238678 229.483032,43.225101 
z"/>
<path fill="#000000" opacity="1.000000" stroke="none" 
	d="
M124.780701,44.220528 
	C124.756393,44.193005 124.910835,44.103359 124.910835,44.103359 
	C124.910835,44.103359 124.805016,44.248051 124.780701,44.220528 
z"/>
<path fill="#000000" opacity="1.000000" stroke="none" 
	d="
M39.170715,202.017609 
	C38.942226,202.309402 38.713734,202.601196 38.485237,202.892990 
	C38.560547,202.610794 38.635860,202.328598 38.889420,201.986404 
	C39.067661,201.926407 39.170712,202.017609 39.170715,202.017609 
z"/>
<path fill="#000000" opacity="1.000000" stroke="none" 
	d="
M61.643867,204.526978 
	C61.620735,204.587341 61.359890,204.410004 61.359890,204.410004 
	C61.359890,204.410004 61.666996,204.466599 61.643867,204.526978 
z"/>
<path fill="#000000" opacity="1.000000" stroke="none" 
	d="
M222.368668,50.424801 
	C222.347366,50.362499 222.650818,50.303848 222.650818,50.303848 
	C222.650818,50.303848 222.389969,50.487103 222.368668,50.424801 
z"/>
<path fill="#000000" opacity="1.000000" stroke="none" 
	d="
M78.229004,253.176697 
	C78.009026,253.283890 77.789047,253.391098 77.569077,253.498322 
	C77.575417,253.296341 77.581749,253.094345 77.803192,252.932449 
	C78.018295,252.972534 78.229012,253.176697 78.229004,253.176697 
z"/>
<path fill="#000000" opacity="1.000000" stroke="none" 
	d="
M217.611343,63.990379 
	C217.609528,64.043221 217.431641,63.982914 217.431641,63.982914 
	C217.431641,63.982914 217.613159,63.937538 217.611343,63.990379 
z"/>
<path fill="#000000" opacity="1.000000" stroke="none" 
	d="
M248.656616,290.303650 
	C248.575302,290.018402 248.493988,289.733124 248.412674,289.447876 
	C248.660629,289.470795 248.908600,289.493744 249.053314,289.787048 
	C248.950058,290.057434 248.656616,290.303650 248.656616,290.303650 
z"/>
<path fill="#000000" opacity="1.000000" stroke="none" 
	d="
M70.930557,256.450836 
	C70.968048,256.406281 71.095001,256.569672 71.095001,256.569672 
	C71.095001,256.569672 70.893074,256.495392 70.930557,256.450836 
z"/>
<path fill="#000000" opacity="1.000000" stroke="none" 
	d="
M269.450378,256.832947 
	C269.490204,256.813354 269.410583,256.852539 269.450378,256.832947 
z"/>
<path fill="#000000" opacity="1.000000" stroke="none" 
	d="
M246.561737,286.112305 
	C246.481110,286.148712 246.454620,285.818542 246.454620,285.818542 
	C246.454620,285.818542 246.642365,286.075897 246.561737,286.112305 
z"/>
<path fill="#000000" opacity="1.000000" stroke="none" 
	d="
M244.348938,281.738098 
	C244.454285,282.031006 244.559631,282.323914 244.664978,282.616821 
	C244.398758,282.586151 244.132523,282.555481 243.946808,282.256165 
	C244.027313,281.987518 244.348938,281.738098 244.348938,281.738098 
z"/>
<path fill="#000000" opacity="1.000000" stroke="none" 
	d="
M59.996086,261.471558 
	C60.021057,261.539398 59.748779,261.548645 59.748779,261.548645 
	C59.748779,261.548645 59.971111,261.403717 59.996086,261.471558 
z"/>
<path fill="#000000" opacity="1.000000" stroke="none" 
	d="
M77.063988,281.545685 
	C77.028488,281.587769 76.909164,281.432648 76.909164,281.432648 
	C76.909164,281.432648 77.099487,281.503601 77.063988,281.545685 
z"/>
<path fill="#000000" opacity="1.000000" stroke="none" 
	d="
M65.523270,263.965240 
	C65.550781,263.988892 65.495750,263.941589 65.523270,263.965240 
z"/>
<path fill="#000000" opacity="1.000000" stroke="none" 
	d="
M243.866547,282.112244 
	C243.874084,281.985596 244.042419,281.734222 244.279846,281.610474 
	C244.348938,281.738098 244.027313,281.987518 243.866547,282.112244 
z"/>
<path fill="#000000" opacity="1.000000" stroke="none" 
	d="
M43.886597,197.936951 
	C43.886597,197.936951 44.300304,197.731125 44.300304,197.731125 
	C44.300304,197.731125 44.222736,198.061386 44.097183,198.045090 
	C43.971626,198.028793 43.886597,197.936951 43.886597,197.936951 
z"/>
<path fill="#000000" opacity="1.000000" stroke="none" 
	d="
M113.413422,51.017403 
	C113.415604,50.963047 113.597305,51.025448 113.597305,51.025448 
	C113.597305,51.025448 113.411247,51.071758 113.413422,51.017403 
z"/>
<path fill="#000000" opacity="1.000000" stroke="none" 
	d="
M115.557968,55.939083 
	C115.601250,55.974770 115.443008,56.096622 115.443008,56.096622 
	C115.443008,56.096622 115.514679,55.903397 115.557968,55.939083 
z"/>
<path fill="#000000" opacity="1.000000" stroke="none" 
	d="
M117.488586,59.004646 
	C117.523392,58.993801 117.453781,59.015491 117.488586,59.004646 
z"/>
<path fill="#000000" opacity="1.000000" stroke="none" 
	d="
M119.531853,65.042702 
	C119.486343,65.059143 119.577362,65.026260 119.531853,65.042702 
z"/>
<path fill="#000000" opacity="1.000000" stroke="none" 
	d="
M93.961639,269.512695 
	C93.951088,269.480530 93.972191,269.544891 93.961639,269.512695 
z"/>
<path fill="#000000" opacity="1.000000" stroke="none" 
	d="
M73.193573,270.166382 
	C73.008072,270.108521 72.822578,270.050659 72.820023,269.985229 
	C73.002960,269.977692 73.193573,270.166382 73.193573,270.166382 
z"/>
<path fill="#000000" opacity="1.000000" stroke="none" 
	d="
M118.592682,61.863441 
	C118.618515,61.885002 118.566833,61.841885 118.592682,61.863441 
z"/>
<path fill="#000000" opacity="1.000000" stroke="none" 
	d="
M89.038513,271.474457 
	C89.058556,271.528564 88.844002,271.536469 88.844002,271.536469 
	C88.844002,271.536469 89.018463,271.420349 89.038513,271.474457 
z"/>
<path fill="#000000" opacity="1.000000" stroke="none" 
	d="
M293.435181,252.838074 
	C293.469299,252.821106 293.401093,252.855026 293.435181,252.838074 
z"/>
<path fill="#000000" opacity="1.000000" stroke="none" 
	d="
M288.878967,242.207169 
	C288.693756,242.030457 288.508575,241.853745 288.323364,241.677032 
	C288.555328,241.652664 288.787262,241.628296 289.032257,241.811264 
	C289.045288,242.018616 288.878967,242.207169 288.878967,242.207169 
z"/>
<path fill="#000000" opacity="1.000000" stroke="none" 
	d="
M280.900879,242.542801 
	C280.867554,242.466278 281.179474,242.444687 281.179474,242.444687 
	C281.179474,242.444687 280.934174,242.619324 280.900879,242.542801 
z"/>
<path fill="#000000" opacity="1.000000" stroke="none" 
	d="
M86.978271,299.341980 
	C87.013542,299.342407 86.942993,299.341522 86.978271,299.341980 
z"/>
<path fill="#000000" opacity="1.000000" stroke="none" 
	d="
M251.999451,301.500488 
	C252.005554,301.522614 251.993347,301.478333 251.999451,301.500488 
z"/>
<path fill="#000000" opacity="1.000000" stroke="none" 
	d="
M32.035557,222.518494 
	C32.017246,222.539413 32.053867,222.497574 32.035557,222.518494 
z"/>
<path fill="#000000" opacity="1.000000" stroke="none" 
	d="
M116.114784,47.454018 
	C116.151047,47.535210 115.818665,47.560280 115.818665,47.560280 
	C115.818665,47.560280 116.078522,47.372829 116.114784,47.454018 
z"/>
<path fill="#000000" opacity="1.000000" stroke="none" 
	d="
M294.263367,245.700928 
	C294.777832,245.937729 295.292297,246.174530 295.920654,246.707886 
	C296.034515,247.004410 295.842560,247.209564 295.842560,247.209564 
	C295.287140,247.015213 294.731720,246.820862 294.079773,246.306122 
	C293.983215,245.985718 294.263367,245.700928 294.263367,245.700928 
z"/>
<path fill="#000000" opacity="1.000000" stroke="none" 
	d="
M64.948746,218.458847 
	C64.979401,218.422318 64.918091,218.495377 64.948746,218.458847 
z"/>
<path fill="#000000" opacity="1.000000" stroke="none" 
	d="
M249.096771,289.934326 
	C249.331085,289.944946 249.418655,290.078674 249.506241,290.212372 
	C249.286118,290.295013 249.066010,290.377686 248.751251,290.381989 
	C248.656616,290.303650 248.950058,290.057434 249.096771,289.934326 
z"/>
<path fill="#000000" opacity="1.000000" stroke="none" 
	d="
M80.766281,251.429474 
	C80.823532,251.355545 81.041298,251.601028 81.041298,251.601028 
	C81.041298,251.601028 80.709038,251.503418 80.766281,251.429474 
z"/>
<path fill="#000000" opacity="1.000000" stroke="none" 
	d="
M122.491043,59.498077 
	C122.518692,59.487297 122.463402,59.508862 122.491043,59.498077 
z"/>
<path fill="#000000" opacity="1.000000" stroke="none" 
	d="
M120.205681,46.103539 
	C120.205681,46.103539 119.910622,46.214905 119.910622,46.214905 
	C119.910622,46.214905 119.789757,45.930443 119.915802,45.940834 
	C120.041847,45.951221 120.205681,46.103539 120.205681,46.103539 
z"/>
<path fill="#000000" opacity="1.000000" stroke="none" 
	d="
M227.462738,310.463074 
	C227.539291,310.415680 227.554993,310.618073 227.554993,310.618073 
	C227.554993,310.618073 227.386200,310.510468 227.462738,310.463074 
z"/>
<path fill="#000000" opacity="1.000000" stroke="none" 
	d="
M119.963730,45.871178 
	C119.885605,45.791130 120.259758,45.584003 120.259758,45.584003 
	C120.259758,45.584003 120.380127,45.962299 120.292908,46.032921 
	C120.205681,46.103539 120.041847,45.951221 119.963730,45.871178 
z"/>
<path fill="#000000" opacity="1.000000" stroke="none" 
	d="
M121.480843,57.485336 
	C121.519974,57.466408 121.441711,57.504265 121.480843,57.485336 
z"/>
<path fill="#000000" opacity="1.000000" stroke="none" 
	d="
M92.560997,277.469299 
	C92.607262,277.544128 92.413475,277.564423 92.413475,277.564423 
	C92.413475,277.564423 92.514732,277.394440 92.560997,277.469299 
z"/>
<path fill="#000000" opacity="1.000000" stroke="none" 
	d="
M248.551483,304.546204 
	C248.490356,304.583130 248.612595,304.509277 248.551483,304.546204 
z"/>
<path fill="#000000" opacity="1.000000" stroke="none" 
	d="
M245.507812,277.508179 
	C245.497513,277.481293 245.518097,277.535034 245.507812,277.508179 
z"/>
<path fill="#000000" opacity="1.000000" stroke="none" 
	d="
M69.455429,88.448296 
	C69.516464,88.411301 69.394386,88.485291 69.455429,88.448296 
z"/>
<path fill="#000000" opacity="1.000000" stroke="none" 
	d="
M247.525787,278.537262 
	C247.474228,278.565765 247.577332,278.508759 247.525787,278.537262 
z"/>
<path fill="#000000" opacity="1.000000" stroke="none" 
	d="
M90.790062,280.853271 
	C90.790062,280.853271 91.177925,280.668854 91.177925,280.668854 
	C91.177925,280.668854 91.312454,281.048004 91.143181,281.038544 
	C90.973907,281.029083 90.790062,280.853271 90.790062,280.853271 
z"/>
<path fill="#000000" opacity="1.000000" stroke="none" 
	d="
M223.555862,47.572021 
	C223.475647,47.625740 223.449631,47.411644 223.449631,47.411644 
	C223.449631,47.411644 223.636078,47.518299 223.555862,47.572021 
z"/>
<path fill="#000000" opacity="1.000000" stroke="none" 
	d="
M91.063324,281.119507 
	C90.955772,281.152161 90.758804,281.094330 90.675949,280.944885 
	C90.790062,280.853271 90.973907,281.029083 91.063324,281.119507 
z"/>
<path fill="#000000" opacity="1.000000" stroke="none" 
	d="
M87.534683,297.462524 
	C87.564575,297.515839 87.504784,297.409180 87.534683,297.462524 
z"/>
<path fill="#000000" opacity="1.000000" stroke="none" 
	d="
M122.817039,48.938004 
	C122.817039,48.938004 123.103767,48.755684 123.103767,48.755684 
	C123.103767,48.755684 123.220802,49.050861 123.091553,49.055077 
	C122.962311,49.059296 122.817039,48.938004 122.817039,48.938004 
z"/>
<path fill="#000000" opacity="1.000000" stroke="none" 
	d="
M95.521759,282.469971 
	C95.542900,282.511780 95.500610,282.428192 95.521759,282.469971 
z"/>
<path fill="#000000" opacity="1.000000" stroke="none" 
	d="
M123.031769,49.123550 
	C123.101234,49.187809 122.853241,49.262424 122.853241,49.262424 
	C122.853241,49.262424 122.735085,49.041203 122.776062,48.989601 
	C122.817039,48.938004 122.962311,49.059296 123.031769,49.123550 
z"/>
<path fill="#000000" opacity="1.000000" stroke="none" 
	d="
M250.394653,282.595764 
	C250.322281,282.498932 250.586624,282.449371 250.586624,282.449371 
	C250.586624,282.449371 250.467010,282.692596 250.394653,282.595764 
z"/>
<path fill="#000000" opacity="1.000000" stroke="none" 
	d="
M89.545303,283.563049 
	C89.479630,283.604584 89.610977,283.521515 89.545303,283.563049 
z"/>
<path fill="#000000" opacity="1.000000" stroke="none" 
	d="
M251.528717,284.542786 
	C251.474930,284.573425 251.582504,284.512146 251.528717,284.542786 
z"/>
<path fill="#000000" opacity="1.000000" stroke="none" 
	d="
M93.532654,286.528076 
	C93.470047,286.564392 93.595261,286.491791 93.532654,286.528076 
z"/>
<path fill="#000000" opacity="1.000000" stroke="none" 
	d="
M90.446396,292.425690 
	C90.522102,292.375244 90.545395,292.577545 90.545395,292.577545 
	C90.545395,292.577545 90.370697,292.476135 90.446396,292.425690 
z"/>
<path fill="#000000" opacity="1.000000" stroke="none" 
	d="
M255.211578,289.766663 
	C255.302597,290.044922 255.210068,290.209656 254.962921,290.121582 
	C254.991837,289.982330 255.211578,289.766663 255.211578,289.766663 
z"/>
<path fill="#000000" opacity="1.000000" stroke="none" 
	d="
M252.531403,286.551575 
	C252.472122,286.586823 252.590683,286.516357 252.531403,286.551575 
z"/>
<path fill="#000000" opacity="1.000000" stroke="none" 
	d="
M254.883774,290.091980 
	C254.775711,290.201599 254.726852,289.872833 254.726852,289.872833 
	C254.726852,289.872833 255.031647,289.732513 255.121613,289.749573 
	C255.211578,289.766663 254.991837,289.982330 254.883774,290.091980 
z"/>
<path fill="#000000" opacity="1.000000" stroke="none" 
	d="
M289.130219,241.925919 
	C289.215149,241.833221 289.351379,242.193436 289.351379,242.193436 
	C289.351379,242.193436 289.023376,242.341644 288.951172,242.274414 
	C288.878967,242.207169 289.045288,242.018616 289.130219,241.925919 
z"/>
<path fill="#000000" opacity="1.000000" stroke="none" 
	d="
M60.026508,200.828812 
	C60.026508,200.828812 59.919365,201.110123 59.926327,201.021362 
	C59.933289,200.932617 60.026508,200.828812 60.026508,200.828812 
z"/>
<path fill="#000000" opacity="1.000000" stroke="none" 
	d="
M74.571823,254.572571 
	C74.489174,254.628845 74.457809,254.409393 74.457809,254.409393 
	C74.457809,254.409393 74.654465,254.516281 74.571823,254.572571 
z"/>
<path fill="#000000" opacity="1.000000" stroke="none" 
	d="
M77.913452,252.869919 
	C77.808609,252.767303 78.245270,252.569626 78.245270,252.569626 
	C78.245270,252.569626 78.392395,252.987930 78.310699,253.082306 
	C78.229012,253.176697 78.018295,252.972534 77.913452,252.869919 
z"/>
<path fill="#000000" opacity="1.000000" stroke="none" 
	d="
M45.518150,202.511551 
	C45.483715,202.527328 45.552589,202.495773 45.518150,202.511551 
z"/>
<path fill="#000000" opacity="1.000000" stroke="none" 
	d="
M296.129639,246.901062 
	C296.224792,246.797729 296.305603,247.152191 296.305603,247.152191 
	C296.305603,247.152191 295.999359,247.307434 295.920959,247.258499 
	C295.842560,247.209564 296.034515,247.004410 296.129639,246.901062 
z"/>
<path fill="#000000" opacity="1.000000" stroke="none" 
	d="
M288.475555,247.459015 
	C288.533325,247.426346 288.417786,247.491684 288.475555,247.459015 
z"/>
<path fill="#000000" opacity="1.000000" stroke="none" 
	d="
M293.843079,246.128067 
	C293.456665,246.065964 293.235016,245.837631 293.009735,245.282089 
	C292.981476,244.978760 293.186646,244.774277 293.186646,244.774277 
	C293.460632,244.937225 293.710907,245.130844 294.100403,245.528030 
	C294.263367,245.700928 293.983215,245.985718 293.843079,246.128067 
z"/>
<path fill="#000000" opacity="1.000000" stroke="none" 
	d="
M292.879517,245.081635 
	C292.777557,245.184525 292.665375,244.816559 292.665375,244.816559 
	C292.665375,244.816559 293.008331,244.675064 293.097473,244.724670 
	C293.186646,244.774277 292.981476,244.978760 292.879517,245.081635 
z"/>
<path fill="#000000" opacity="1.000000" stroke="none" 
	d="
M43.491692,203.499756 
	C43.517956,203.490158 43.465431,203.509338 43.491692,203.499756 
z"/>
<path fill="#000000" opacity="1.000000" stroke="none" 
	d="
M68.478706,257.472778 
	C68.527489,257.447113 68.429924,257.498413 68.478706,257.472778 
z"/>
<path fill="#000000" opacity="1.000000" stroke="none" 
	d="
M281.464966,239.537796 
	C281.435364,239.484955 281.494537,239.590637 281.464966,239.537796 
z"/>
<path fill="#000000" opacity="1.000000" stroke="none" 
	d="
M57.006744,203.994263 
	C57.013000,203.988266 57.015488,204.043365 57.001976,204.027985 
	C56.988468,204.012604 57.000488,204.000259 57.006744,203.994263 
z"/>
<path fill="#000000" opacity="1.000000" stroke="none" 
	d="
M329.430084,209.424805 
	C329.522034,209.360672 329.557037,209.609375 329.557037,209.609375 
	C329.557037,209.609375 329.338135,209.488922 329.430084,209.424805 
z"/>
<path fill="#000000" opacity="1.000000" stroke="none" 
	d="
M52.484215,221.489410 
	C52.517536,221.474365 52.450890,221.504440 52.484215,221.489410 
z"/>
<path fill="#000000" opacity="1.000000" stroke="none" 
	d="
M55.940666,214.904205 
	C55.940666,214.904205 56.157257,214.767029 56.157257,214.767029 
	C56.157257,214.767029 56.248020,214.988617 56.139774,214.996979 
	C56.031528,215.005341 55.940666,214.904205 55.940666,214.904205 
z"/>
<path fill="#000000" opacity="1.000000" stroke="none" 
	d="
M55.495338,220.493408 
	C55.503189,220.517227 55.487492,220.469589 55.495338,220.493408 
z"/>
<path fill="#000000" opacity="1.000000" stroke="none" 
	d="
M56.088364,215.042633 
	C56.145195,215.079941 55.910194,215.236496 55.910194,215.236496 
	C55.910194,215.236496 55.822418,215.005890 55.881542,214.955048 
	C55.940666,214.904205 56.031528,215.005341 56.088364,215.042633 
z"/>
<path fill="#000000" opacity="1.000000" stroke="none" 
	d="
M51.874599,216.991684 
	C51.874599,216.991684 52.070805,217.070114 52.005508,217.065582 
	C51.940216,217.061035 51.874599,216.991684 51.874599,216.991684 
z"/>
<path fill="#000000" opacity="1.000000" stroke="none" 
	d="
M51.974174,217.094574 
	C52.008137,217.128113 51.819386,217.053482 51.846992,217.022583 
	C51.874599,216.991684 51.940216,217.061035 51.974174,217.094574 
z"/>
<path fill="#000000" opacity="1.000000" stroke="none" 
	d="
M40.853077,199.904892 
	C40.853077,199.904892 41.134766,200.053253 41.057396,200.038635 
	C40.980022,200.024033 40.853077,199.904892 40.853077,199.904892 
z"/>
<path fill="#000000" opacity="1.000000" stroke="none" 
	d="
M100.454803,269.462128 
	C100.516014,269.425995 100.393593,269.498260 100.454803,269.462128 
z"/>
<path fill="#000000" opacity="1.000000" stroke="none" 
	d="
M72.905212,269.885895 
	C73.045822,269.712128 73.189003,269.789948 73.215302,270.096985 
	C73.193573,270.166382 73.002960,269.977692 72.905212,269.885895 
z"/>
<path fill="#000000" opacity="1.000000" stroke="none" 
	d="
M96.500977,268.491516 
	C96.511497,268.519104 96.490463,268.463898 96.500977,268.491516 
z"/>
<path fill="#000000" opacity="1.000000" stroke="none" 
	d="
M124.464874,70.464951 
	C124.517799,70.435532 124.411957,70.494370 124.464874,70.464951 
z"/>
<path fill="#000000" opacity="1.000000" stroke="none" 
	d="
M47.509674,217.502808 
	C47.480999,217.513794 47.538349,217.491837 47.509674,217.502808 
z"/>
<path fill="#000000" opacity="1.000000" stroke="none" 
	d="
M28.837406,163.143524 
	C28.801039,163.055145 28.913509,162.813522 29.155622,162.628479 
	C29.285263,162.685074 28.986246,162.990280 28.837406,163.143524 
z"/>
<path fill="#000000" opacity="1.000000" stroke="none" 
	d="
M292.969849,265.896759 
	C292.890381,265.799988 293.177856,265.723053 293.177856,265.723053 
	C293.177856,265.723053 293.276581,266.023621 293.242676,266.105133 
	C293.208801,266.186646 293.049347,265.993530 292.969849,265.896759 
z"/>
<path fill="#000000" opacity="1.000000" stroke="none" 
	d="
M80.483749,264.482300 
	C80.518501,264.466095 80.448997,264.498474 80.483749,264.482300 
z"/>
<path fill="#000000" opacity="1.000000" stroke="none" 
	d="
M44.016701,198.072205 
	C44.061775,198.115601 43.854118,198.010590 43.870358,197.973770 
	C43.886597,197.936951 43.971626,198.028793 44.016701,198.072205 
z"/>
<path fill="#000000" opacity="1.000000" stroke="none" 
	d="
M91.520744,270.523560 
	C91.477005,270.545807 91.564484,270.501282 91.520744,270.523560 
z"/>
<path fill="#000000" opacity="1.000000" stroke="none" 
	d="
M58.909412,200.178833 
	C58.909412,200.178833 59.075901,199.872238 59.058998,199.955353 
	C59.042091,200.038483 58.909412,200.178833 58.909412,200.178833 
z"/>
<path fill="#000000" opacity="1.000000" stroke="none" 
	d="
M41.040154,200.086975 
	C40.910294,200.408203 40.698917,200.647598 40.214199,200.952454 
	C39.962238,201.036774 39.816864,200.895920 39.816864,200.895920 
	C40.019341,200.647049 40.241390,200.417053 40.668045,200.055420 
	C40.853077,199.904892 40.980022,200.024033 41.040154,200.086975 
z"/>
<path fill="#000000" opacity="1.000000" stroke="none" 
	d="
M70.442764,261.426819 
	C70.530655,261.368347 70.564499,261.598602 70.564499,261.598602 
	C70.564499,261.598602 70.354874,261.485321 70.442764,261.426819 
z"/>
<path fill="#000000" opacity="1.000000" stroke="none" 
	d="
M274.873962,261.041077 
	C274.795685,261.119354 274.687958,260.819977 274.687958,260.819977 
	C274.687958,260.819977 274.971588,260.696960 275.036987,260.748535 
	C275.102417,260.800110 274.952209,260.962769 274.873962,261.041077 
z"/>
<path fill="#000000" opacity="1.000000" stroke="none" 
	d="
M62.461670,260.454407 
	C62.525684,260.416351 62.397655,260.492462 62.461670,260.454407 
z"/>
<path fill="#000000" opacity="1.000000" stroke="none" 
	d="
M59.881325,200.979156 
	C59.582401,200.887848 59.362980,200.715057 59.040257,200.343063 
	C58.909412,200.178833 59.042091,200.038483 59.111961,199.971497 
	C59.412777,200.068024 59.616703,200.260208 59.910057,200.654938 
	C60.026508,200.828812 59.933289,200.932617 59.881325,200.979156 
z"/>
<path fill="#000000" opacity="1.000000" stroke="none" 
	d="
M279.530457,258.548889 
	C279.469055,258.585114 279.591888,258.512634 279.530457,258.548889 
z"/>
<path fill="#000000" opacity="1.000000" stroke="none" 
	d="
M39.021355,201.875519 
	C39.119808,201.582687 39.294189,201.364426 39.657532,201.032883 
	C39.816864,200.895920 39.962238,201.036774 40.032597,201.110107 
	C39.933647,201.409149 39.739182,201.610550 39.345131,201.902618 
	C39.170712,202.017609 39.067661,201.926407 39.021355,201.875519 
z"/>
<path fill="#000000" opacity="1.000000" stroke="none" 
	d="
M47.489380,201.505676 
	C47.511986,201.499222 47.466770,201.512146 47.489380,201.505676 
z"/>
</svg>